STARTFONT 2.3
FONT -FontForge-Monofett-Book-R-Normal--16-160-72-72-P-86-ISO10646-1
SIZE 16 72 72  4
FONTBOUNDINGBOX 11 19 0 -3
COMMENT "Generated by fontforge, http://fontforge.sourceforge.net"
COMMENT "Copyright (c) 2011 by vernon adams. All rights reserved."
STARTPROPERTIES 41
FOUNDRY "FontForge"
FAMILY_NAME "Monofett"
WEIGHT_NAME "Book"
SLANT "R"
SETWIDTH_NAME "Normal"
ADD_STYLE_NAME ""
PIXEL_SIZE 16
POINT_SIZE 160
RESOLUTION_X 72
RESOLUTION_Y 72
SPACING "P"
AVERAGE_WIDTH 86
CHARSET_REGISTRY "ISO10646"
CHARSET_ENCODING "1"
FONTNAME_REGISTRY ""
CHARSET_COLLECTIONS "ISO8859-2 ISO8859-9 ISO8859-4 ISO10646-1"
BITS_PER_PIXEL 4
FONT_NAME "Monofett"
FACE_NAME "Monofett"
COPYRIGHT "Copyright (c) 2011 by vernon adams. All rights reserved."
FONT_VERSION "1.000"
FONT_ASCENT 13
FONT_DESCENT 3
UNDERLINE_POSITION -2
UNDERLINE_THICKNESS 1
X_HEIGHT 10
CAP_HEIGHT 10
RAW_ASCENT 799
RAW_DESCENT 200
NORM_SPACE 2
RELATIVE_WEIGHT 40
RELATIVE_SETWIDTH 50
SUPERSCRIPT_X 0
SUPERSCRIPT_Y 7
SUPERSCRIPT_SIZE 10
SUBSCRIPT_X 0
SUBSCRIPT_Y 2
SUBSCRIPT_SIZE 10
FIGURE_WIDTH 9
AVG_LOWERCASE_WIDTH 90
AVG_UPPERCASE_WIDTH 90
ENDPROPERTIES
CHARS 409
STARTCHAR uni000D
ENCODING 13
SWIDTH 144 0
DWIDTH 2 0
BBX 1 1 0 0
BITMAP
00
ENDCHAR
STARTCHAR space
ENCODING 32
SWIDTH 144 0
DWIDTH 2 0
BBX 1 1 0 0
BITMAP
00
ENDCHAR
STARTCHAR exclam
ENCODING 33
SWIDTH 424 0
DWIDTH 7 0
BBX 7 11 0 0
BITMAP
038A8100
5FE0FE20
DFF1FFA0
FFF3FFC0
FFF5FFC0
FFF7FFC0
FFFBFFC0
FFF7FFC0
EFFFFFB0
8FFFFF50
07DEC500
ENDCHAR
STARTCHAR quotedbl
ENCODING 34
SWIDTH 424 0
DWIDTH 7 0
BBX 7 11 0 0
BITMAP
038A8100
5F868E20
DF868FA0
FFFFFFC0
FFFFFFC0
FFFFFFC0
FFFFFFC0
FFFFFFC0
EFFFFFB0
8FFFFF50
07DEC500
ENDCHAR
STARTCHAR numbersign
ENCODING 35
SWIDTH 482 0
DWIDTH 8 0
BBX 8 11 0 0
BITMAP
038AA710
5FFCDEE2
DFC359F9
FF8228FB
FFB74EFC
FF421AFC
FF792EFC
FFEEDFFC
EFFFFFFA
8FFFFFF4
07DFEC50
ENDCHAR
STARTCHAR dollar
ENCODING 36
SWIDTH 578 0
DWIDTH 9 0
BBX 10 11 0 0
BITMAP
038ABB9500
5FFA49DF80
DF85372FF2
FF7A6EEFF4
FFB2127FF4
FFFF6E2FF4
FF86482FF4
FFE938CFF4
EFFFCFFFF3
8FFFFFFFC0
07DFFFD910
ENDCHAR
STARTCHAR percent
ENCODING 37
SWIDTH 578 0
DWIDTH 9 0
BBX 10 11 0 0
BITMAP
038ABB9500
5D79F9FF80
D682C5FFF2
F9247AFFF4
FFFF3D8BF4
FFFE4772F4
FFF98932F4
FFFFFFDEF4
EFFFFFFFF3
8FFFFFFFC0
07DFFFD910
ENDCHAR
STARTCHAR ampersand
ENCODING 38
SWIDTH 578 0
DWIDTH 9 0
BBX 10 11 0 0
BITMAP
038ABB9500
5FF433BF80
DFD4FFFFF2
FFE4BB3CF4
FFF5662CF4
FFD4FF4EF4
FFE2992EF4
FFFB88BFF4
EFFFFFFFF3
8FFFFFFFC0
07DFFFD910
ENDCHAR
STARTCHAR quotesingle
ENCODING 39
SWIDTH 424 0
DWIDTH 7 0
BBX 7 11 0 0
BITMAP
038A8100
5FF3FE20
DFF3FFA0
FFFFFFC0
FFFFFFC0
FFFFFFC0
FFFFFFC0
FFFFFFC0
EFFFFFB0
8FFFFF50
07DEC500
ENDCHAR
STARTCHAR parenleft
ENCODING 40
SWIDTH 483 0
DWIDTH 8 0
BBX 8 11 0 0
BITMAP
038AA710
5FC23FE2
DF99FFF9
FF99FFFC
FF99FFFC
FF99FFFC
FF99FFFC
FFA5AFFC
EFF98FFA
8FFFFFF4
07DFEC50
ENDCHAR
STARTCHAR parenright
ENCODING 41
SWIDTH 483 0
DWIDTH 8 0
BBX 8 11 0 0
BITMAP
038AA710
5FD33EE2
DFFF5DF9
FFFF5DFC
FFFF5DFC
FFFF5DFC
FFFF5DFC
FFEA3DFC
EFE8BFFA
8FFFFFF4
07DFEC50
ENDCHAR
STARTCHAR asterisk
ENCODING 42
SWIDTH 428 0
DWIDTH 7 0
BBX 7 11 0 0
BITMAP
038A8200
5FA84E30
DE6039B0
FE913CD0
FFBB8FD0
FFFFFFD0
FFFFFFD0
FFFFFFD0
EFFFFFC0
8FFFFF60
07DEC600
ENDCHAR
STARTCHAR plus
ENCODING 43
SWIDTH 428 0
DWIDTH 7 0
BBX 7 11 0 0
BITMAP
038A8200
5FF3FF30
DC818CB0
FDA2ADD0
FFF4FFD0
FFFFFFD0
FFFFFFD0
FFFFFFD0
EFFFFFC0
8FFFFF60
07DEC600
ENDCHAR
STARTCHAR comma
ENCODING 44
SWIDTH 428 0
DWIDTH 7 0
BBX 7 11 0 0
BITMAP
038A8200
5FFFFF30
DFFFFFB0
FFFFFFD0
FFFFFFD0
FFFFFFD0
FFE7EFD0
FFE3EFD0
EFFCFFC0
8FFFFF60
07DEC600
ENDCHAR
STARTCHAR hyphen
ENCODING 45
SWIDTH 428 0
DWIDTH 7 0
BBX 7 11 0 0
BITMAP
038A8200
5FFFFF30
DFFFFFB0
FE334FD0
FFFFFFD0
FFFFFFD0
FFFFFFD0
FFFFFFD0
EFFFFFC0
8FFFFF60
07DEC600
ENDCHAR
STARTCHAR period
ENCODING 46
SWIDTH 428 0
DWIDTH 7 0
BBX 7 11 0 0
BITMAP
038A8200
5FFFFF30
DFFFFFB0
FFFFFFD0
FFFFFFD0
FFFFFFD0
FFE7FFD0
FFE9FFD0
EFFFFFC0
8FFFFF60
07DEC600
ENDCHAR
STARTCHAR slash
ENCODING 47
SWIDTH 428 0
DWIDTH 7 0
BBX 7 11 0 0
BITMAP
038A8200
5FF9BF30
DFF5CFB0
FFF3FFD0
FFF3FFD0
FFC5FFD0
FFA7FFD0
FFABFFD0
EFFFFFC0
8FFFFF60
07DEC600
ENDCHAR
STARTCHAR zero
ENCODING 48
SWIDTH 578 0
DWIDTH 9 0
BBX 10 11 0 0
BITMAP
038ABB9500
5FB2332D80
DF8AFF89F2
FF8AFF89F4
FF8AFF89F4
FF8AFF89F4
FF86994AF4
FFE9889FF4
EFFFFFFFF3
8FFFFFFFC0
07DFFFD910
ENDCHAR
STARTCHAR one
ENCODING 49
SWIDTH 578 0
DWIDTH 9 0
BBX 10 11 0 0
BITMAP
038AAA9500
5FF91BFF80
DFFE7BFFF2
FFFF7BFFF4
FFFF7BFFF4
FFFF7BFFF4
FFFF7BFFF4
FFFFBDFFF4
EFFFFFFFF3
8FFFFFFFC0
07DFFFD910
ENDCHAR
STARTCHAR two
ENCODING 50
SWIDTH 578 0
DWIDTH 9 0
BBX 10 11 0 0
BITMAP
038ABB9500
5FB2333E80
DFCCFF5CF2
FFFFEE4CF4
FFB3447FF4
FF8AFFFFF4
FF86AAAFF4
FFE8889FF4
EFFFFFFFF3
8FFFFFFFC0
07DFFFD910
ENDCHAR
STARTCHAR three
ENCODING 51
SWIDTH 578 0
DWIDTH 9 0
BBX 10 11 0 0
BITMAP
038ABB9500
5F82334F80
DF9EFF4DF2
FFFEDD3EF4
FFFB662EF4
FFFFFF4DF4
FF48AA2EF4
FFD888BFF4
EFFFFFFFF3
8FFFFFFFC0
07DFFFD910
ENDCHAR
STARTCHAR four
ENCODING 52
SWIDTH 578 0
DWIDTH 9 0
BBX 10 11 0 0
BITMAP
038ABB9500
5FC5F89F80
DFC5F89FF2
FFC5F89FF4
FFD5F89FF4
FFF43228F4
FFFFF89FF4
FFFFFCCFF4
EFFFFFFFF3
8FFFFFFFC0
07DFFFD910
ENDCHAR
STARTCHAR five
ENCODING 53
SWIDTH 578 0
DWIDTH 9 0
BBX 10 11 0 0
BITMAP
038ABB9500
5FB2333F80
DF99FFFFF2
FF9588AFF4
FFC9AA4BF4
FFFFFF7AF4
FFB6AA4BF4
FFF988AFF4
EFFFFFFFF3
8FFFFFFFC0
07DFFFD910
ENDCHAR
STARTCHAR six
ENCODING 54
SWIDTH 578 0
DWIDTH 9 0
BBX 10 11 0 0
BITMAP
038ABB9500
5FC2112F80
DF98FFFFF2
FF95778EF4
FF95AA68F4
FF99FFA7F4
FFA5AA68F4
FFF9889FF4
EFFFFFFFF3
8FFFFFFFC0
07DFFFD910
ENDCHAR
STARTCHAR seven
ENCODING 55
SWIDTH 578 0
DWIDTH 9 0
BBX 10 11 0 0
BITMAP
038ABB9500
5FF6325F80
DFFFF7AFF2
FFFFF2EFF4
FFFFB5FFF4
FFFF6AFFF4
FFFE2FFFF4
FFFDAFFFF4
EFFFFFFFF3
8FFFFFFFC0
07DFFFD910
ENDCHAR
STARTCHAR eight
ENCODING 56
SWIDTH 578 0
DWIDTH 9 0
BBX 10 11 0 0
BITMAP
038ABB9500
5FB2332D80
DF7BFF8AF2
FF77BB5AF4
FF84663BF4
FF7BFF8AF4
FF86994BF4
FFE988AFF4
EFFFFFFFF3
8FFFFFFFC0
07DFFFD910
ENDCHAR
STARTCHAR nine
ENCODING 57
SWIDTH 578 0
DWIDTH 9 0
BBX 10 11 0 0
BITMAP
038ABB9500
5FA2333E80
DF5CFF6BF2
FF5CFF6BF4
FFA2221BF4
FFFFFF7BF4
FFF8883CF4
FFE988AFF4
EFFFFFFFF3
8FFFFFFFC0
07DFFFD910
ENDCHAR
STARTCHAR colon
ENCODING 58
SWIDTH 428 0
DWIDTH 7 0
BBX 7 11 0 0
BITMAP
038A8200
5FFFFF30
DFFFFFB0
FFFFFFD0
FFE4FFD0
FFFCFFD0
FFE7FFD0
FFE9FFD0
EFFFFFC0
8FFFFF60
07DEC600
ENDCHAR
STARTCHAR semicolon
ENCODING 59
SWIDTH 428 0
DWIDTH 7 0
BBX 7 11 0 0
BITMAP
038A8200
5FFFFF30
DFFFFFB0
FFFFFFD0
FFF4EFD0
FFFCFFD0
FFE7EFD0
FFE3EFD0
EFFCFFC0
8FFFFF60
07DEC600
ENDCHAR
STARTCHAR less
ENCODING 60
SWIDTH 482 0
DWIDTH 8 0
BBX 8 13 0 0
BITMAP
00022000
19FFFE60
9FFFFFF4
EFFFEFFB
FFFD7FFC
FFE6FFFC
FF6EFFFC
FFAAFFFC
FFF8CFFC
FFFF9FFB
9FFFFFF5
19FFFE60
00132000
ENDCHAR
STARTCHAR equal
ENCODING 61
SWIDTH 482 0
DWIDTH 8 0
BBX 8 13 0 0
BITMAP
00022000
08FFFE60
8FFFFFF4
EFFFFFFB
FFFFFFFC
FFB88BFC
FFFFFFFC
FFB77BFC
FFFFFFFC
EFFFFFFB
9FFFFFF5
19FFFE70
00133000
ENDCHAR
STARTCHAR greater
ENCODING 62
SWIDTH 482 0
DWIDTH 8 0
BBX 8 13 0 0
BITMAP
00022000
08FFFE60
8FFFFFF4
EFFEFFFB
FFE6FFFC
FFFD7FFC
FFFFB9FC
FFFF7DFC
FFF8BFFC
EFEAFFFB
9FFFFFF5
19FFFE70
00133000
ENDCHAR
STARTCHAR question
ENCODING 63
SWIDTH 578 0
DWIDTH 9 0
BBX 10 11 0 0
BITMAP
038ABB9500
5FF6455E80
DFFBFF8CF2
FFFFFF8CF4
FFFFB45EF4
FFFF8CFFF4
FFFFBDFFF4
FFFFCDFFF4
EFFFFFFFF3
8FFFFFFFC0
07DFFFD910
ENDCHAR
STARTCHAR at
ENCODING 64
SWIDTH 578 0
DWIDTH 9 0
BBX 10 11 0 0
BITMAP
038A9A9500
5F74664B80
D98C78E4F2
F6DEE997D4
F6E95488C4
F7D3EA88C4
F8BB7854E4
FE39AEEEF4
EFEBAEFFF3
8FFFFFFFC0
07DFFFD910
ENDCHAR
STARTCHAR A
ENCODING 65
SWIDTH 578 0
DWIDTH 9 0
BBX 10 11 0 0
BITMAP
038ABB9500
5FF4236F80
DFD5FF2FF2
FFB6FF3FF4
FFA2551DF4
FF88EE5CF4
FF6AFF7AF4
FFADFFCCF4
EFFFFFFFF3
8FFFFFFFC0
07DFFFD910
ENDCHAR
STARTCHAR B
ENCODING 66
SWIDTH 578 0
DWIDTH 9 0
BBX 10 11 0 0
BITMAP
038ABB9500
5F62334F80
DF6CFF3EF2
FF69BB3EF4
FF65764FF4
FF6CFF4EF4
FF67992EF4
FFB888BFF4
EFFFFFFFF3
8FFFFFFFC0
07DFFFD910
ENDCHAR
STARTCHAR C
ENCODING 67
SWIDTH 578 0
DWIDTH 9 0
BBX 10 11 0 0
BITMAP
038ABB9500
5FA2338F80
DF7BFFFFF2
FF7BFFFFF4
FF7BFFFFF4
FF7BFFFFF4
FF7699BFF4
FFE988CFF4
EFFFFFFFF3
8FFFFFFFC0
07DFFFD910
ENDCHAR
STARTCHAR D
ENCODING 68
SWIDTH 578 0
DWIDTH 9 0
BBX 10 11 0 0
BITMAP
038ABB9500
5F82332C80
DF89FF98F2
FF89FF98F4
FF89FF98F4
FF89FF98F4
FF869959F4
FFC8889FF4
EFFFFFFFF3
8FFFFFFFC0
07DFFFD910
ENDCHAR
STARTCHAR E
ENCODING 69
SWIDTH 578 0
DWIDTH 9 0
BBX 10 11 0 0
BITMAP
038ABB9500
5FF2333F80
DFF3FFFFF2
FFF3CCEFF4
FFF255AFF4
FFF3FFFFF4
FFF3999FF4
FFF9888EF4
EFFFFFFFF3
8FFFFFFFC0
07DFFFD910
ENDCHAR
STARTCHAR F
ENCODING 70
SWIDTH 578 0
DWIDTH 9 0
BBX 10 11 0 0
BITMAP
038ABB9500
5FF2333F80
DFF3FFFFF2
FFF2AACFF4
FFF288BFF4
FFF3FFFFF4
FFF3FFFFF4
FFF9FFFFF4
EFFFFFFFF3
8FFFFFFFC0
07DFFFD910
ENDCHAR
STARTCHAR G
ENCODING 71
SWIDTH 578 0
DWIDTH 9 0
BBX 10 11 0 0
BITMAP
038ABB9500
5FD3333F80
DFA7FFFFF2
FFA7FFFFF4
FFA7F529F4
FFA7FF98F4
FFB49959F4
FFFA889FF4
EFFFFFFFF3
8FFFFFFFC0
07DFFFD910
ENDCHAR
STARTCHAR H
ENCODING 72
SWIDTH 578 0
DWIDTH 9 0
BBX 10 11 0 0
BITMAP
038ABB9500
5F89FFA880
DF89FFA8F2
FF87BB78F4
FF847748F4
FF89FFA8F4
FF89FFA8F4
FFCCFFDCF4
EFFFFFFFF3
8FFFFFFFC0
07DFFFD910
ENDCHAR
STARTCHAR I
ENCODING 73
SWIDTH 578 0
DWIDTH 9 0
BBX 10 11 0 0
BITMAP
038ABB9500
5FC3213B80
DFFFA8FFF2
FFFFA8FFF4
FFFFA8FFF4
FFFFA8FFF4
FFE9659DF4
FFE8888DF4
EFFFFFFFF3
8FFFFFFFC0
07DFFFD910
ENDCHAR
STARTCHAR J
ENCODING 74
SWIDTH 578 0
DWIDTH 9 0
BBX 10 11 0 0
BITMAP
038ABB9500
5FFFF5DF80
DFFFF5DFF2
FFFFF5DFF4
FFFFF5DFF4
FFFFF5DFF4
FFFC92DFF4
FFFC8BFFF4
EFFFFFFFF3
8FFFFFFFC0
07DFFFD910
ENDCHAR
STARTCHAR K
ENCODING 75
SWIDTH 578 0
DWIDTH 9 0
BBX 10 11 0 0
BITMAP
038ABB9400
5FF3FF7780
DFF3F75FF2
FFF375FFF4
FFF328FFF4
FFF3E4AFF4
FFF3FE3BF4
FFF9FFDCF4
EFFFFFFFF3
8FFFFFFFC0
07DFFFD910
ENDCHAR
STARTCHAR L
ENCODING 76
SWIDTH 578 0
DWIDTH 9 0
BBX 10 11 0 0
BITMAP
038ABB9500
5FF8AFFF80
DFF8AFFFF2
FFF8AFFFF4
FFF8AFFFF4
FFF8AFFFF4
FFF869BFF4
FFFC88AFF4
EFFFFFFFF3
8FFFFFFFC0
07DFFFD910
ENDCHAR
STARTCHAR M
ENCODING 77
SWIDTH 578 0
DWIDTH 9 0
BBX 10 11 0 0
BITMAP
038ABB9500
5F33432780
DF2F7BE4F2
FF2F7BE4F4
FF2F7BE4F4
FF2FDEE4F4
FF2FFFE4F4
FF9FFFEAF4
EFFFFFFFF3
8FFFFFFFC0
07DFFFD910
ENDCHAR
STARTCHAR N
ENCODING 78
SWIDTH 578 0
DWIDTH 9 0
BBX 10 11 0 0
BITMAP
038ABB9500
5F92333E80
DF8AFF7BF2
FF8AFF7BF4
FF8AFF7BF4
FF8AFF7BF4
FF8AFF7BF4
FFCDFFBDF4
EFFFFFFFF3
8FFFFFFFC0
07DFFFD910
ENDCHAR
STARTCHAR O
ENCODING 79
SWIDTH 578 0
DWIDTH 9 0
BBX 10 11 0 0
BITMAP
038ABB9500
5FC2332C80
DF89FF99F2
FF8AFF98F4
FF8AFF98F4
FF8AFF98F4
FF959959F4
FFF9889FF4
EFFFFFFFF3
8FFFFFFFC0
07DFFFD910
ENDCHAR
STARTCHAR P
ENCODING 80
SWIDTH 578 0
DWIDTH 9 0
BBX 10 11 0 0
BITMAP
038ABB9500
5FE1333E80
DFE4FF6BF2
FFE4FF6BF4
FFE1552DF4
FFE3DDEFF4
FFE4FFFFF4
FFFAFFFFF4
EFFFFFFFF3
8FFFFFFFC0
07DFFFD910
ENDCHAR
STARTCHAR Q
ENCODING 81
SWIDTH 578 0
DWIDTH 9 0
BBX 10 11 0 0
BITMAP
038ABB9500
5FC2332C80
DF99FF98F2
FF89FF98F4
FF89FF98F4
FF89FE98F4
FF957359F4
FFF9846FF4
EFFFFDAFF3
8FFFFFFFC0
07DFFFD910
ENDCHAR
STARTCHAR R
ENCODING 82
SWIDTH 578 0
DWIDTH 9 0
BBX 10 11 0 0
BITMAP
038ABB9500
5FA1325F80
DFA7FF2FF2
FFA7FE3FF4
FFA1228FF4
FFA7FF3EF4
FFA7FF4EF4
FFDBFFAFF4
EFFFFFFFF3
8FFFFFFFC0
07DFFFD910
ENDCHAR
STARTCHAR S
ENCODING 83
SWIDTH 578 0
DWIDTH 9 0
BBX 10 11 0 0
BITMAP
038ABB9500
5FE3333F80
DFB7FFFFF2
FFB4BCDFF4
FFF8662CF4
FFFFFF7BF4
FFF9994BF4
FFF988AFF4
EFFFFFFFF3
8FFFFFFFC0
07DFFFD910
ENDCHAR
STARTCHAR T
ENCODING 84
SWIDTH 578 0
DWIDTH 9 0
BBX 10 11 0 0
BITMAP
038ABB9500
5FC3213B80
DFFFA8FFF2
FFFFA8FFF4
FFFFA8FFF4
FFFFA8FFF4
FFFFA8FFF4
FFFFDCFFF4
EFFFFFFFF3
8FFFFFFFC0
07DFFFD910
ENDCHAR
STARTCHAR U
ENCODING 85
SWIDTH 578 0
DWIDTH 9 0
BBX 10 11 0 0
BITMAP
038ABB9500
5F8AFF8980
DF8AFF89F2
FF8AFF89F4
FF8AFF89F4
FF8AFF89F4
FF86995AF4
FFE9889FF4
EFFFFFFFF3
8FFFFFFFC0
07DFFFD910
ENDCHAR
STARTCHAR V
ENCODING 86
SWIDTH 578 0
DWIDTH 9 0
BBX 10 11 0 0
BITMAP
038ABB9500
5F98FF6B80
DFC4FF2EF2
FFF2FD3FF4
FFF5CA7FF4
FFF986BFF4
FFFD32EFF4
FFFFABFFF4
EFFFFFFFF3
8FFFFFFFC0
07DFFFD910
ENDCHAR
STARTCHAR W
ENCODING 87
SWIDTH 578 0
DWIDTH 9 0
BBX 10 11 0 0
BITMAP
038ABB9500
5C6F8CF380
DD4F48E3F2
FF2F26C5F4
FF2D43B6F4
FF3A7398F4
FF54944AF4
FFD9FD9FF4
EFFFFFFFF3
8FFFFFFFC0
07DFFFD910
ENDCHAR
STARTCHAR X
ENCODING 88
SWIDTH 578 0
DWIDTH 9 0
BBX 10 11 0 0
BITMAP
038ABB9500
5FC6FF7A80
DFF4CC3FF2
FFFD33CFF4
FFFF32FFF4
FFF9788FF4
FFE3EF3DF4
FFDCFFDDF4
EFFFFFFFF3
8FFFFFFFC0
07DFFFD910
ENDCHAR
STARTCHAR Y
ENCODING 89
SWIDTH 578 0
DWIDTH 9 0
BBX 10 11 0 0
BITMAP
038ABB9500
5FC3FF3D80
DFF4CC4FF2
FFFA66AFF4
FFFF23FFF4
FFFF78FFF4
FFFF89FFF4
FFFFCCFFF4
EFFFFFFFF3
8FFFFFFFC0
07DFFFD910
ENDCHAR
STARTCHAR Z
ENCODING 90
SWIDTH 578 0
DWIDTH 9 0
BBX 10 11 0 0
BITMAP
038ABB9500
5FF4326F80
DFFFF5BFF2
FFFFC4FFF4
FFFF4CFFF4
FFFA6FFFF4
FFF28AAFF4
FFF9889FF4
EFFFFFFFF3
8FFFFFFFC0
07DFFFD910
ENDCHAR
STARTCHAR bracketleft
ENCODING 91
SWIDTH 484 0
DWIDTH 8 0
BBX 8 11 0 0
BITMAP
03888810
5FF49FE2
DFF4DFF9
FFF4DFFC
FFF4DFFC
FFF4DFFC
FFF4DFFC
FFF49FFC
EFFCDFFA
8FFFFFF5
07DFFC50
ENDCHAR
STARTCHAR backslash
ENCODING 92
SWIDTH 516 0
DWIDTH 8 0
BBX 9 11 0 0
BITMAP
038AB95000
5FF6BFF900
DFF89FFF20
FFFB6FFF40
FFFD4FFF40
FFFF2FFF40
FFFF3EFF40
FFFFBEFF40
EFFFFFFF30
8FFFFFFC00
07DFFD9100
ENDCHAR
STARTCHAR bracketright
ENCODING 93
SWIDTH 484 0
DWIDTH 8 0
BBX 8 11 0 0
BITMAP
03889810
5FF58FE2
DFFA8FF9
FFFA8FFC
FFFA8FFC
FFFA8FFC
FFFA8FFC
FFF58FFC
EFFCDFFA
8FFFFFF5
07DFFC50
ENDCHAR
STARTCHAR asciicircum
ENCODING 94
SWIDTH 355 0
DWIDTH 6 0
BBX 6 7 0 3
BITMAP
027600
0DFF80
5F7AE1
BEA9F6
FCFCEA
BFEFF6
021110
ENDCHAR
STARTCHAR underscore
ENCODING 95
SWIDTH 428 0
DWIDTH 7 0
BBX 7 11 0 0
BITMAP
038A8200
5FFFFF30
DFFFFFB0
FFFFFFD0
FFFFFFD0
FFFFFFD0
FFFFFFD0
FC777DD0
EDAAAEC0
8FFFFF60
07DEC600
ENDCHAR
STARTCHAR grave
ENCODING 96
SWIDTH 308 0
DWIDTH 5 0
BBX 5 6 0 0
BITMAP
045200
BFFF20
ED4F70
8F6EB0
1EDCE0
05CC60
ENDCHAR
STARTCHAR a
ENCODING 97
SWIDTH 578 0
DWIDTH 9 0
BBX 10 11 0 0
BITMAP
038ABB9500
5FE2336F80
DFFFFF3FF2
FFFFFF4FF4
FF92223FF4
FF5DFF4FF4
FF67993FF4
FFE989AFF4
EFFFFFFFF3
8FFFFFFFC0
07DFFFD910
ENDCHAR
STARTCHAR b
ENCODING 98
SWIDTH 578 0
DWIDTH 9 0
BBX 10 11 0 0
BITMAP
038ABB9500
5F62334F80
DF6CFF3EF2
FF69BB3EF4
FF65764FF4
FF6CFF4EF4
FF67992EF4
FFB888BFF4
EFFFFFFFF3
8FFFFFFFC0
07DFFFD910
ENDCHAR
STARTCHAR c
ENCODING 99
SWIDTH 578 0
DWIDTH 9 0
BBX 10 11 0 0
BITMAP
038ABB9500
5FA2338F80
DF7BFFFFF2
FF7BFFFFF4
FF7BFFFFF4
FF7BFFFFF4
FF7699BFF4
FFE988CFF4
EFFFFFFFF3
8FFFFFFFC0
07DFFFD910
ENDCHAR
STARTCHAR d
ENCODING 100
SWIDTH 578 0
DWIDTH 9 0
BBX 10 11 0 0
BITMAP
038ABB9500
5F82332C80
DF89FF98F2
FF89FF98F4
FF89FF98F4
FF89FF98F4
FF869959F4
FFC8889FF4
EFFFFFFFF3
8FFFFFFFC0
07DFFFD910
ENDCHAR
STARTCHAR e
ENCODING 101
SWIDTH 578 0
DWIDTH 9 0
BBX 10 11 0 0
BITMAP
038ABB9500
5FA2337F80
DF6CFF2FF2
FF65662FF4
FF69CCCFF4
FF6CFFFFF4
FF84669FF4
FFFCCCEFF4
EFFFFFFFF3
8FFFFFFFC0
07DFFFD910
ENDCHAR
STARTCHAR f
ENCODING 102
SWIDTH 578 0
DWIDTH 9 0
BBX 10 11 0 0
BITMAP
038ABB9500
5FF2333F80
DFF3FFFFF2
FFF2AACFF4
FFF288BFF4
FFF3FFFFF4
FFF3FFFFF4
FFF9FFFFF4
EFFFFFFFF3
8FFFFFFFC0
07DFFFD910
ENDCHAR
STARTCHAR g
ENCODING 103
SWIDTH 578 0
DWIDTH 9 0
BBX 10 11 0 0
BITMAP
038ABB9500
5FD3333F80
DFA7FFFFF2
FFA7FFFFF4
FFA7F529F4
FFA7FF98F4
FFB49959F4
FFFA889FF4
EFFFFFFFF3
8FFFFFFFC0
07DFFFD910
ENDCHAR
STARTCHAR h
ENCODING 104
SWIDTH 578 0
DWIDTH 9 0
BBX 10 11 0 0
BITMAP
038ABB9500
5F89FFA880
DF89FFA8F2
FF87BB78F4
FF847748F4
FF89FFA8F4
FF89FFA8F4
FFCCFFDCF4
EFFFFFFFF3
8FFFFFFFC0
07DFFFD910
ENDCHAR
STARTCHAR i
ENCODING 105
SWIDTH 578 0
DWIDTH 9 0
BBX 10 11 0 0
BITMAP
038ABB9500
5FC3213B80
DFFFA8FFF2
FFFFA8FFF4
FFFFA8FFF4
FFFFA8FFF4
FFE9659DF4
FFE8888DF4
EFFFFFFFF3
8FFFFFFFC0
07DFFFD910
ENDCHAR
STARTCHAR j
ENCODING 106
SWIDTH 578 0
DWIDTH 9 0
BBX 10 11 0 0
BITMAP
038ABB9500
5FFFF5DF80
DFFFF5DFF2
FFFFF5DFF4
FFFFF5DFF4
FFFFF5DFF4
FFFC92DFF4
FFFC8BFFF4
EFFFFFFFF3
8FFFFFFFC0
07DFFFD910
ENDCHAR
STARTCHAR k
ENCODING 107
SWIDTH 578 0
DWIDTH 9 0
BBX 10 11 0 0
BITMAP
038ABB9400
5FF3FF7780
DFF3F75FF2
FFF375FFF4
FFF328FFF4
FFF3E4AFF4
FFF3FE3BF4
FFF9FFDCF4
EFFFFFFFF3
8FFFFFFFC0
07DFFFD910
ENDCHAR
STARTCHAR l
ENCODING 108
SWIDTH 578 0
DWIDTH 9 0
BBX 10 11 0 0
BITMAP
038ABB9500
5FF8AFFF80
DFF8AFFFF2
FFF8AFFFF4
FFF8AFFFF4
FFF8AFFFF4
FFF869BFF4
FFFC88AFF4
EFFFFFFFF3
8FFFFFFFC0
07DFFFD910
ENDCHAR
STARTCHAR m
ENCODING 109
SWIDTH 578 0
DWIDTH 9 0
BBX 10 11 0 0
BITMAP
038ABB9500
5F33432780
DF2F7BE4F2
FF2F7BE4F4
FF2F7BE4F4
FF2FDEE4F4
FF2FFFE4F4
FF9FFFEAF4
EFFFFFFFF3
8FFFFFFFC0
07DFFFD910
ENDCHAR
STARTCHAR n
ENCODING 110
SWIDTH 578 0
DWIDTH 9 0
BBX 10 11 0 0
BITMAP
038ABB9500
5F92333E80
DF8AFF7BF2
FF8AFF7BF4
FF8AFF7BF4
FF8AFF7BF4
FF8AFF7BF4
FFCDFFBDF4
EFFFFFFFF3
8FFFFFFFC0
07DFFFD910
ENDCHAR
STARTCHAR o
ENCODING 111
SWIDTH 578 0
DWIDTH 9 0
BBX 10 11 0 0
BITMAP
038ABB9500
5FC2332C80
DF89FF99F2
FF8AFF98F4
FF8AFF98F4
FF8AFF98F4
FF959959F4
FFF9889FF4
EFFFFFFFF3
8FFFFFFFC0
07DFFFD910
ENDCHAR
STARTCHAR p
ENCODING 112
SWIDTH 578 0
DWIDTH 9 0
BBX 10 11 0 0
BITMAP
038ABB9500
5FE1333E80
DFE4FF6BF2
FFE4FF6BF4
FFE1552DF4
FFE3DDEFF4
FFE4FFFFF4
FFFAFFFFF4
EFFFFFFFF3
8FFFFFFFC0
07DFFFD910
ENDCHAR
STARTCHAR q
ENCODING 113
SWIDTH 578 0
DWIDTH 9 0
BBX 10 11 0 0
BITMAP
038ABB9500
5FC2332C80
DF99FF98F2
FF89FF98F4
FF89FF98F4
FF89FE98F4
FF957359F4
FFF9846FF4
EFFFFDAFF3
8FFFFFFFC0
07DFFFD910
ENDCHAR
STARTCHAR r
ENCODING 114
SWIDTH 578 0
DWIDTH 9 0
BBX 10 11 0 0
BITMAP
038ABB9500
5FA1325F80
DFA7FF2FF2
FFA7FE3FF4
FFA1228FF4
FFA7FF3EF4
FFA7FF4EF4
FFDBFFAFF4
EFFFFFFFF3
8FFFFFFFC0
07DFFFD910
ENDCHAR
STARTCHAR s
ENCODING 115
SWIDTH 578 0
DWIDTH 9 0
BBX 10 11 0 0
BITMAP
038ABB9500
5FE3333F80
DFB7FFFFF2
FFB4BCDFF4
FFF8662CF4
FFFFFF7BF4
FFF9994BF4
FFF988AFF4
EFFFFFFFF3
8FFFFFFFC0
07DFFFD910
ENDCHAR
STARTCHAR t
ENCODING 116
SWIDTH 578 0
DWIDTH 9 0
BBX 10 11 0 0
BITMAP
038ABB9500
5FC3213B80
DFFFA8FFF2
FFFFA8FFF4
FFFFA8FFF4
FFFFA8FFF4
FFFFA8FFF4
FFFFDCFFF4
EFFFFFFFF3
8FFFFFFFC0
07DFFFD910
ENDCHAR
STARTCHAR u
ENCODING 117
SWIDTH 578 0
DWIDTH 9 0
BBX 10 11 0 0
BITMAP
038ABB9500
5F8AFF8980
DF8AFF89F2
FF8AFF89F4
FF8AFF89F4
FF8AFF89F4
FF86995AF4
FFE9889FF4
EFFFFFFFF3
8FFFFFFFC0
07DFFFD910
ENDCHAR
STARTCHAR v
ENCODING 118
SWIDTH 578 0
DWIDTH 9 0
BBX 10 11 0 0
BITMAP
038ABB9500
5F98FF6B80
DFC4FF2EF2
FFF2FD3FF4
FFF5CA7FF4
FFF986BFF4
FFFD32EFF4
FFFFABFFF4
EFFFFFFFF3
8FFFFFFFC0
07DFFFD910
ENDCHAR
STARTCHAR w
ENCODING 119
SWIDTH 578 0
DWIDTH 9 0
BBX 10 11 0 0
BITMAP
038ABB9500
5C6F8CF380
DD4F48E3F2
FF2F26C5F4
FF2D43B6F4
FF3A7398F4
FF54944AF4
FFD9FD9FF4
EFFFFFFFF3
8FFFFFFFC0
07DFFFD910
ENDCHAR
STARTCHAR x
ENCODING 120
SWIDTH 578 0
DWIDTH 9 0
BBX 10 11 0 0
BITMAP
038ABB9500
5FC6FF7A80
DFF4CC3FF2
FFFD33CFF4
FFFF32FFF4
FFF9788FF4
FFE3EF3DF4
FFDCFFDDF4
EFFFFFFFF3
8FFFFFFFC0
07DFFFD910
ENDCHAR
STARTCHAR y
ENCODING 121
SWIDTH 578 0
DWIDTH 9 0
BBX 10 11 0 0
BITMAP
038ABB9500
5FC3FF3D80
DFF4CC4FF2
FFFA66AFF4
FFFF23FFF4
FFFF78FFF4
FFFF89FFF4
FFFFCCFFF4
EFFFFFFFF3
8FFFFFFFC0
07DFFFD910
ENDCHAR
STARTCHAR z
ENCODING 122
SWIDTH 578 0
DWIDTH 9 0
BBX 10 11 0 0
BITMAP
038ABB9500
5FF4326F80
DFFFF5BFF2
FFFFC4FFF4
FFFF4CFFF4
FFFA6FFFF4
FFF28AAFF4
FFF9889FF4
EFFFFFFFF3
8FFFFFFFC0
07DFFFD910
ENDCHAR
STARTCHAR braceleft
ENCODING 123
SWIDTH 484 0
DWIDTH 8 0
BBX 8 11 0 0
BITMAP
03897710
5FE25DE2
DFD5FFF9
FFC5FFFC
F617FFFC
FFC5FFFC
FFC5FFFC
FFE26DFC
EFFDBEFA
8FFFFFF5
07DFFC50
ENDCHAR
STARTCHAR bar
ENCODING 124
SWIDTH 484 0
DWIDTH 8 0
BBX 8 11 0 0
BITMAP
03868810
5FF8CFE2
DFF8CFF9
FFF8CFFC
FFF8CFFC
FFF8CFFC
FFF8CFFC
FFF8CFFC
EFFFFFFA
8FFFFFF5
07DFFC50
ENDCHAR
STARTCHAR braceright
ENCODING 125
SWIDTH 484 0
DWIDTH 8 0
BBX 8 11 0 0
BITMAP
03789810
5FB54FE2
DFFF3FF9
FFFF3FFC
FFFF329C
FFFF2FFC
FFFF3FFC
FFB63FFC
EFDBEFFA
8FFFFFF5
07DFFC50
ENDCHAR
STARTCHAR asciitilde
ENCODING 126
SWIDTH 578 0
DWIDTH 9 0
BBX 10 11 0 0
BITMAP
038ABB9500
5FFFFFFF80
DFFDFFCFF2
FF84353FF4
FFDEFDDFF4
FFFFFFFFF4
FFFFFFFFF4
FFFFFFFFF4
EFFFFFFFF3
8FFFFFFFC0
07DFFFD910
ENDCHAR
STARTCHAR uni00A0
ENCODING 160
SWIDTH 151 0
DWIDTH 2 0
BBX 1 1 0 0
BITMAP
00
ENDCHAR
STARTCHAR exclamdown
ENCODING 161
SWIDTH 424 0
DWIDTH 7 0
BBX 7 11 0 0
BITMAP
038A8100
5FF5FE20
DFFAFFA0
FFF6FFC0
FFF6FFC0
FFF6FFC0
FFF6FFC0
FFFAFFC0
EFFFFFB0
8FFFFF50
07DEC500
ENDCHAR
STARTCHAR cent
ENCODING 162
SWIDTH 578 0
DWIDTH 9 0
BBX 10 11 0 0
BITMAP
038A8A9500
5FFE6AEF80
DFE235BFF2
FFD58DFFF4
FFD58DFFF4
FFD58DFFF4
FFE234AFF4
FFFE7BEFF4
EFFFDEFFF3
8FFFFFFFC0
07DFFFD910
ENDCHAR
STARTCHAR sterling
ENCODING 163
SWIDTH 578 0
DWIDTH 9 0
BBX 10 11 0 0
BITMAP
038ABA9500
5FF9229F80
DFF5CC7FF2
FFF5CFFFF4
FFD256DFF4
FFF5CFFFF4
FFF589CFF4
FFFB88BFF4
EFFFFFFFF3
8FFFFFFFC0
07DFFFD910
ENDCHAR
STARTCHAR currency
ENCODING 164
SWIDTH 578 0
DWIDTH 9 0
BBX 10 11 0 0
BITMAP
038ABB9500
5FC7996D80
DFF3BB4FF2
FFF5FF4FF4
FFF4FF4FF4
FFC3443DF4
FFEEFFDFF4
FFFFFFFFF4
EFFFFFFFF3
8FFFFFFFC0
07DFFFD910
ENDCHAR
STARTCHAR yen
ENCODING 165
SWIDTH 578 0
DWIDTH 9 0
BBX 10 11 0 0
BITMAP
038ABB9500
5F88FE2F80
DFE2F88FF2
FFF6A2EFF4
FFFC26FFF4
FFF513CFF4
FFF927DFF4
FFFFAEFFF4
EFFFFFFFF3
8FFFFFFFC0
07DFFFD910
ENDCHAR
STARTCHAR brokenbar
ENCODING 166
SWIDTH 484 0
DWIDTH 8 0
BBX 8 11 0 0
BITMAP
038AA810
5FF7AFE2
DFF7AFF9
FFFACFFC
FFFCDFFC
FFF7AFFC
FFF7AFFC
FFFCDFFC
EFFFFFFA
8FFFFFF5
07DFFC50
ENDCHAR
STARTCHAR section
ENCODING 167
SWIDTH 578 0
DWIDTH 9 0
BBX 10 11 0 0
BITMAP
038ABB9500
5FE5556F80
DFC8FFFFF2
FFE355EFF4
FFF6E8CFF4
FFFA538FF4
FFFFFF5FF4
FFD8885FF4
EFECCCFFF3
8FFFFFFFC0
07DFFFD910
ENDCHAR
STARTCHAR dieresis
ENCODING 168
SWIDTH 388 0
DWIDTH 6 0
BBX 7 5 0 0
BITMAP
04885000
8FFFFB00
EAABAF30
DCCDCF20
3AAAA500
ENDCHAR
STARTCHAR copyright
ENCODING 169
SWIDTH 578 0
DWIDTH 9 0
BBX 10 11 0 0
BITMAP
038AAB9500
5FC6767E80
DD7A66B6F2
F6F6FFFBB4
F7F6FFFE84
F6F6FFFC94
FAA966D6E4
FF88BA6CF4
EFFDABEFF3
8FFFFFFFC0
07DFFFD910
ENDCHAR
STARTCHAR ordfeminine
ENCODING 170
SWIDTH 578 0
DWIDTH 9 0
BBX 10 11 0 0
BITMAP
038ABB9500
5FF8336F80
DFFFFF2FF2
FFF9662FF4
FFE3CB2FF4
FFE2873FF4
FFFCAAEFF4
FFFFFFFFF4
EFFFFFFFF3
8FFFFFFFC0
07DFFFD910
ENDCHAR
STARTCHAR guillemotleft
ENCODING 171
SWIDTH 578 0
DWIDTH 9 0
BBX 10 11 0 0
BITMAP
038ABB9500
5FFFEFEF80
DFFC9BAFF2
FFF6D7FFF4
FF7D6EFFF4
FFB99CFFF4
FFF8D6EFF4
FFFFAEAFF4
EFFFFFFFF3
8FFFFFFFC0
07DFFFD910
ENDCHAR
STARTCHAR uni00AD
ENCODING 173
SWIDTH 428 0
DWIDTH 7 0
BBX 7 11 0 0
BITMAP
038A8200
5FFFFF30
DFFFFFB0
FE334FD0
FFFFFFD0
FFFFFFD0
FFFFFFD0
FFFFFFD0
EFFFFFC0
8FFFFF60
07DEC600
ENDCHAR
STARTCHAR registered
ENCODING 174
SWIDTH 578 0
DWIDTH 9 0
BBX 10 11 0 0
BITMAP
038AAB9500
5FC6767E80
DD7966C6F2
F6F6FC9BB4
F7F675CE84
F6F6FC9C94
FAA8FD96E4
FF88BA6CF4
EFFDABEFF3
8FFFFFFFC0
07DFFFD910
ENDCHAR
STARTCHAR macron
ENCODING 175
SWIDTH 428 0
DWIDTH 7 0
BBX 7 5 0 0
BITMAP
038A8200
7FFFFF50
EE889FC0
EEAABFB0
5EFFFE30
ENDCHAR
STARTCHAR degree
ENCODING 176
SWIDTH 428 0
DWIDTH 7 0
BBX 7 11 0 0
BITMAP
038A8200
5F647F30
DF4F4FB0
FF749FD0
FFFFFFD0
FFFFFFD0
FFFFFFD0
FFFFFFD0
EFFFFFC0
8FFFFF60
07DEC600
ENDCHAR
STARTCHAR plusminus
ENCODING 177
SWIDTH 428 0
DWIDTH 7 0
BBX 7 11 0 0
BITMAP
038A8200
5FF3FF30
DC818CB0
FDA2ADD0
FFF4FFD0
FF778FD0
FFAAAFD0
FFFFFFD0
EFFFFFC0
8FFFFF60
07DEC600
ENDCHAR
STARTCHAR uni00B2
ENCODING 178
SWIDTH 578 0
DWIDTH 9 0
BBX 10 11 0 0
BITMAP
038ABB9500
5FF622CF80
DFFAB59FF2
FFF369FFF4
FFF266EFF4
FFFDCCFFF4
FFFFFFFFF4
FFFFFFFFF4
EFFFFFFFF3
8FFFFFFFC0
07DFFFD910
ENDCHAR
STARTCHAR uni00B3
ENCODING 179
SWIDTH 578 0
DWIDTH 9 0
BBX 10 11 0 0
BITMAP
038ABB9500
5FF7225F80
DFFDCA2FF2
FFFEC92FF4
FFF5553FF4
FFFFCCEFF4
FFFFFFFFF4
FFFFFFFFF4
EFFFFFFFF3
8FFFFFFFC0
07DFFFD910
ENDCHAR
STARTCHAR acute
ENCODING 180
SWIDTH 308 0
DWIDTH 5 0
BBX 5 6 0 0
BITMAP
025300
3FFFA0
8F3ED0
DD7F70
FCDD00
7CC400
ENDCHAR
STARTCHAR uni00B5
ENCODING 181
SWIDTH 578 0
DWIDTH 9 0
BBX 10 11 0 0
BITMAP
038ABB9500
5F5DFF6C80
DF4DFF5CF2
FF4DFF5CF4
FF4DFF5CF4
FF4DFF5CF4
FF47993DF4
FF4888BFF4
EFAEFFFFF3
8FFFFFFFC0
07DFFFD910
ENDCHAR
STARTCHAR paragraph
ENCODING 182
SWIDTH 578 0
DWIDTH 9 0
BBX 10 11 0 0
BITMAP
038ABB9500
5FC3257F80
DF70088FF2
FF80088FF4
FFE9888FF4
FFFFF88FF4
FFFFF88FF4
FFFFFDDFF4
EFFFFFFFF3
8FFFFFFFC0
07DFFFD910
ENDCHAR
STARTCHAR periodcentered
ENCODING 183
SWIDTH 428 0
DWIDTH 7 0
BBX 7 11 0 0
BITMAP
038A8200
5FFFFF30
DFFFFFB0
FFE1FFD0
FFFFFFD0
FFFFFFD0
FFFFFFD0
FFFFFFD0
EFFFFFC0
8FFFFF60
07DEC600
ENDCHAR
STARTCHAR cedilla
ENCODING 184
SWIDTH 101 0
DWIDTH 2 0
BBX 2 3 0 -3
BITMAP
98
C3
44
ENDCHAR
STARTCHAR uni00B9
ENCODING 185
SWIDTH 578 0
DWIDTH 9 0
BBX 10 11 0 0
BITMAP
038AAA9500
5FF91BFF80
DFFE7BFFF2
FFFF7BFFF4
FFFF7BFFF4
FFFFDEFFF4
FFFFFFFFF4
FFFFFFFFF4
EFFFFFFFF3
8FFFFFFFC0
07DFFFD910
ENDCHAR
STARTCHAR ordmasculine
ENCODING 186
SWIDTH 578 0
DWIDTH 9 0
BBX 10 11 0 0
BITMAP
038ABB9500
5FF3333E80
DFD5FF6BF2
FFD5FF7BF4
FFD5FF7BF4
FFE2883CF4
FFFCAACFF4
FFFFFFFFF4
EFFFFFFFF3
8FFFFFFFC0
07DFFFD910
ENDCHAR
STARTCHAR guillemotright
ENCODING 187
SWIDTH 578 0
DWIDTH 9 0
BBX 10 11 0 0
BITMAP
038ABB9500
5FEFEFFF80
DFD8C9FFF2
FFFAB8DFF4
FFFF6E6FF4
FFFE6C8FF4
FFF6E6FFF4
FFCCBDFFF4
EFFFFFFFF3
8FFFFFFFC0
07DFFFD910
ENDCHAR
STARTCHAR onequarter
ENCODING 188
SWIDTH 578 0
DWIDTH 9 0
BBX 10 11 0 0
BITMAP
038ABB9500
561E5CFF80
DE3E3FFFF2
FF3D4CFCF4
FF3983F3F4
FFD6B2F3F4
FFF3F43054
FFF9FFE3F4
EFFFFFFCF3
8FFFFFFFC0
07DFFFD910
ENDCHAR
STARTCHAR onehalf
ENCODING 189
SWIDTH 578 0
DWIDTH 9 0
BBX 10 11 0 0
BITMAP
038ABB9500
561E5CFF80
DE3E3FFFF2
FF3D4845E4
FF3988D694
FFD6B635D4
FFF3F299F4
FFF9FB88F4
EFFFFFFFF3
8FFFFFFFC0
07DFFFD910
ENDCHAR
STARTCHAR threequarters
ENCODING 190
SWIDTH 578 0
DWIDTH 9 0
BBX 10 11 0 0
BITMAP
038ABB9500
561E5CFF80
DE3E3FFFF2
FF3D4845B4
FF3989DA54
FFD6BF7464
FFF3E49754
FFF9FB88D4
EFFFFFFFF3
8FFFFFFFC0
07DFFFD910
ENDCHAR
STARTCHAR questiondown
ENCODING 191
SWIDTH 578 0
DWIDTH 9 0
BBX 10 11 0 0
BITMAP
038AAA9500
5FFFD8FF80
DFFFE8FFF2
FFFA77FFF4
FFE5CEFFF4
FFD7FFFFF4
FFE4984EF4
FFFDBBDFF4
EFFFFFFFF3
8FFFFFFFC0
07DFFFD910
ENDCHAR
STARTCHAR Agrave
ENCODING 192
SWIDTH 578 0
DWIDTH 9 0
BBX 10 16 0 0
BITMAP
0025400000
04FFF90000
07F7BE0000
01ED6F4000
007FAF7000
039FFFA500
5FF4236F80
DFD5FF2FF2
FFB6FF3FF4
FFA2551DF4
FF88EE5CF4
FF6AFF7AF4
FFADFFCCF4
EFFFFFFFF3
8FFFFFFFC0
07DFFFD910
ENDCHAR
STARTCHAR Aacute
ENCODING 193
SWIDTH 578 0
DWIDTH 9 0
BBX 10 16 0 0
BITMAP
0000353000
0004FFF800
0009F3FC00
000EB8F600
001FBEC000
038FFFC500
5FF4236F80
DFD5FF2FF2
FFB6FF3FF4
FFA2551DF4
FF88EE5CF4
FF6AFF7AF4
FFADFFCCF4
EFFFFFFFF3
8FFFFFFFC0
07DFFFD910
ENDCHAR
STARTCHAR Acircumflex
ENCODING 194
SWIDTH 578 0
DWIDTH 9 0
BBX 10 16 0 0
BITMAP
0003A91000
001EDEA000
007F68F200
00CD96F700
00FCECEA00
03FFFFF900
5FF4236F80
DFD5FF2FF2
FFB6FF3FF4
FFA2551DF4
FF88EE5CF4
FF6AFF7AF4
FFADFFCCF4
EFFFFFFFF3
8FFFFFFFC0
07DFFFD910
ENDCHAR
STARTCHAR Atilde
ENCODING 195
SWIDTH 578 0
DWIDTH 9 0
BBX 10 16 0 0
BITMAP
0000110000
005DFFC300
03FFFFFD10
08FEFEDF40
07F3539F30
04FFFFFF00
5FF4236F80
DFD5FF2FF2
FFB6FF3FF4
FFA2551DF4
FF88EE5CF4
FF6AFF7AF4
FFADFFCCF4
EFFFFFFFF3
8FFFFFFFC0
07DFFFD910
ENDCHAR
STARTCHAR Adieresis
ENCODING 196
SWIDTH 578 0
DWIDTH 9 0
BBX 10 15 0 0
BITMAP
0005884000
00BFFFF700
03F8C9CE00
02FBDBDD00
03EFFFF700
5FF4236F80
DFD5FF2FF2
FFB6FF3FF4
FFA2551DF4
FF88EE5CF4
FF6AFF7AF4
FFADFFCCF4
EFFFFFFFF3
8FFFFFFFC0
07DFFFD910
ENDCHAR
STARTCHAR Aring
ENCODING 197
SWIDTH 578 0
DWIDTH 9 0
BBX 10 15 0 0
BITMAP
001AED6000
00BD79F500
02F7D6EA00
02FA55FA00
03FFFFFA00
5FF4236F80
DFD5FF2FF2
FFB6FF3FF4
FFA2551DF4
FF88EE5CF4
FF6AFF7AF4
FFADFFCCF4
EFFFFFFFF3
8FFFFFFFC0
07DFFFD910
ENDCHAR
STARTCHAR AE
ENCODING 198
SWIDTH 578 0
DWIDTH 9 0
BBX 10 11 0 0
BITMAP
038AAA9500
5FB2123A80
DF7A8AFFF2
FF6C88CEF4
FF4D846CF4
FF284AFFF4
FF29569DF4
FFAFC99DF4
EFFFFFFFF3
8FFFFFFFC0
07DFFFD910
ENDCHAR
STARTCHAR Ccedilla
ENCODING 199
SWIDTH 578 0
DWIDTH 9 0
BBX 10 11 0 0
BITMAP
038ABB9500
5FA2338F80
DF7BFFFFF2
FF7BFFFFF4
FF7BFFFFF4
FF7BFFFFF4
FF7699BFF4
FFE937CFF4
EFF96EFFF3
8FFB4DFFC0
07DFFFD910
ENDCHAR
STARTCHAR Egrave
ENCODING 200
SWIDTH 578 0
DWIDTH 9 0
BBX 10 16 0 0
BITMAP
0015510000
02EFFC0000
04F98F2000
00DE5F6000
004FAF9000
038FFFC500
5FF2333F80
DFF3FFFFF2
FFF3CCEFF4
FFF255AFF4
FFF3FFFFF4
FFF3999FF4
FFF9888EF4
EFFFFFFFF3
8FFFFFFFC0
07DFFFD910
ENDCHAR
STARTCHAR Eacute
ENCODING 201
SWIDTH 578 0
DWIDTH 9 0
BBX 10 16 0 0
BITMAP
0000254000
0002FFFB00
0007F4DE00
000CE6F800
000ECDD100
038FFFE500
5FF2333F80
DFF3FFFFF2
FFF3CCEFF4
FFF255AFF4
FFF3FFFFF4
FFF3999FF4
FFF9888EF4
EFFFFFFFF3
8FFFFFFFC0
07DFFFD910
ENDCHAR
STARTCHAR Ecircumflex
ENCODING 202
SWIDTH 578 0
DWIDTH 9 0
BBX 10 16 0 0
BITMAP
0002AA2000
000CEEC000
004F78F400
00AE77E900
00DDDDDC00
03FFFFFB00
5FF2333F80
DFF3FFFFF2
FFF3CCEFF4
FFF255AFF4
FFF3FFFFF4
FFF3999FF4
FFF9888EF4
EFFFFFFFF3
8FFFFFFFC0
07DFFFD910
ENDCHAR
STARTCHAR Edieresis
ENCODING 203
SWIDTH 578 0
DWIDTH 9 0
BBX 10 15 0 0
BITMAP
0004885000
009FFFFA00
01FABAAF20
00ECCCCE10
03CFFFF900
5FF2333F80
DFF3FFFFF2
FFF3CCEFF4
FFF255AFF4
FFF3FFFFF4
FFF3999FF4
FFF9888EF4
EFFFFFFFF3
8FFFFFFFC0
07DFFFD910
ENDCHAR
STARTCHAR Igrave
ENCODING 204
SWIDTH 578 0
DWIDTH 9 0
BBX 10 16 0 0
BITMAP
0015510000
01EFFD0000
03FA7F3000
00CF5F7000
003FAFA000
038FFFC500
5FC3213B80
DFFFA8FFF2
FFFFA8FFF4
FFFFA8FFF4
FFFFA8FFF4
FFE9659DF4
FFE8888DF4
EFFFFFFFF3
8FFFFFFFC0
07DFFFD910
ENDCHAR
STARTCHAR Iacute
ENCODING 205
SWIDTH 578 0
DWIDTH 9 0
BBX 10 16 0 0
BITMAP
0000254000
0001EFFC00
0006F4DF00
000BE5F900
000DDCE100
038FFFF500
5FC3213B80
DFFFA8FFF2
FFFFA8FFF4
FFFFA8FFF4
FFFFA8FFF4
FFE9659DF4
FFE8888DF4
EFFFFFFFF3
8FFFFFFFC0
07DFFFD910
ENDCHAR
STARTCHAR Icircumflex
ENCODING 206
SWIDTH 578 0
DWIDTH 9 0
BBX 10 16 0 0
BITMAP
00029A3000
000BEED000
003F87F500
009F78EB00
00CECDDE00
03EFFFFB00
5FC3213B80
DFFFA8FFF2
FFFFA8FFF4
FFFFA8FFF4
FFFFA8FFF4
FFE9659DF4
FFE8888DF4
EFFFFFFFF3
8FFFFFFFC0
07DFFFD910
ENDCHAR
STARTCHAR Idieresis
ENCODING 207
SWIDTH 578 0
DWIDTH 9 0
BBX 10 15 0 0
BITMAP
0004885000
008FFFFB00
00FAABAF20
00DCCCCF10
03BFFFFA00
5FC3213B80
DFFFA8FFF2
FFFFA8FFF4
FFFFA8FFF4
FFFFA8FFF4
FFE9659DF4
FFE8888DF4
EFFFFFFFF3
8FFFFFFFC0
07DFFFD910
ENDCHAR
STARTCHAR Eth
ENCODING 208
SWIDTH 578 0
DWIDTH 9 0
BBX 10 11 0 0
BITMAP
038ABB9500
5F82332C80
DF89FF98F2
FF89FF98F4
FF55FF98F4
FF89FF98F4
FF869959F4
FFC8889FF4
EFFFFFFFF3
8FFFFFFFC0
07DFFFD910
ENDCHAR
STARTCHAR Ntilde
ENCODING 209
SWIDTH 578 0
DWIDTH 9 0
BBX 10 16 0 0
BITMAP
0000200000
007EFFB200
05FFFFFC00
0AFEFEEF10
0AE352CF10
05FFFFFD00
5F92333E80
DF8AFF7BF2
FF8AFF7BF4
FF8AFF7BF4
FF8AFF7BF4
FF8AFF7BF4
FFCDFFBDF4
EFFFFFFFF3
8FFFFFFFC0
07DFFFD910
ENDCHAR
STARTCHAR Ograve
ENCODING 210
SWIDTH 578 0
DWIDTH 9 0
BBX 10 16 0 0
BITMAP
0015510000
02EFFB0000
05F89F1000
00DE5F6000
005FAF8000
038FFFB500
5FC2332C80
DF89FF99F2
FF8AFF98F4
FF8AFF98F4
FF8AFF98F4
FF959959F4
FFF9889FF4
EFFFFFFFF3
8FFFFFFFC0
07DFFFD910
ENDCHAR
STARTCHAR Oacute
ENCODING 211
SWIDTH 578 0
DWIDTH 9 0
BBX 10 16 0 0
BITMAP
0000254000
0003FFFA00
0008F3EE00
000CD6F700
000FCDD000
038FFFD500
5FC2332C80
DF89FF99F2
FF8AFF98F4
FF8AFF98F4
FF8AFF98F4
FF959959F4
FFF9889FF4
EFFFFFFFF3
8FFFFFFFC0
07DFFFD910
ENDCHAR
STARTCHAR Ocircumflex
ENCODING 212
SWIDTH 578 0
DWIDTH 9 0
BBX 10 16 0 0
BITMAP
0003AA2000
000DEEB000
005F78F300
00BE87F900
00DDDCDC00
03FFFFFA00
5FC2332C80
DF89FF99F2
FF8AFF98F4
FF8AFF98F4
FF8AFF98F4
FF959959F4
FFF9889FF4
EFFFFFFFF3
8FFFFFFFC0
07DFFFD910
ENDCHAR
STARTCHAR Otilde
ENCODING 213
SWIDTH 578 0
DWIDTH 9 0
BBX 10 16 0 0
BITMAP
0000110000
004DFFD400
02EFFFFE20
06FEEFDF60
05F4547F50
03FFFFFF00
5FC2332C80
DF89FF99F2
FF8AFF98F4
FF8AFF98F4
FF8AFF98F4
FF959959F4
FFF9889FF4
EFFFFFFFF3
8FFFFFFFC0
07DFFFD910
ENDCHAR
STARTCHAR Odieresis
ENCODING 214
SWIDTH 578 0
DWIDTH 9 0
BBX 10 15 0 0
BITMAP
0005884000
00AFFFF900
01F9BABF10
01ECDCCE00
03DFFFF900
5FC2332C80
DF89FF99F2
FF8AFF98F4
FF8AFF98F4
FF8AFF98F4
FF959959F4
FFF9889FF4
EFFFFFFFF3
8FFFFFFFC0
07DFFFD910
ENDCHAR
STARTCHAR multiply
ENCODING 215
SWIDTH 578 0
DWIDTH 9 0
BBX 10 11 0 0
BITMAP
038ABB9500
5FFFFFFF80
DFFDEEDFF2
FFFC54DFF4
FFFE44EFF4
FFFBDCCFF4
FFFFFFFFF4
FFFFFFFFF4
EFFFFFFFF3
8FFFFFFFC0
07DFFFD910
ENDCHAR
STARTCHAR Oslash
ENCODING 216
SWIDTH 578 0
DWIDTH 9 0
BBX 10 11 0 0
BITMAP
038AAA9500
5FB2331D80
DF7BF92AF2
FF7BD48AF4
FF7B5D8AF4
FF758F8AF4
FF80894BF4
FFE999AFF4
EFFFFFFFF3
8FFFFFFFC0
07DFFFD910
ENDCHAR
STARTCHAR Ugrave
ENCODING 217
SWIDTH 578 0
DWIDTH 9 0
BBX 10 16 0 0
BITMAP
0015510000
02EFFC0000
04F98F2000
00DE5F6000
004FAF9000
038FFFC500
5F8AFF8980
DF8AFF89F2
FF8AFF89F4
FF8AFF89F4
FF8AFF89F4
FF86995AF4
FFE9889FF4
EFFFFFFFF3
8FFFFFFFC0
07DFFFD910
ENDCHAR
STARTCHAR Uacute
ENCODING 218
SWIDTH 578 0
DWIDTH 9 0
BBX 10 16 0 0
BITMAP
0000254000
0002FFFB00
0007F4DE00
000CE6F800
000ECDD100
038FFFE500
5F8AFF8980
DF8AFF89F2
FF8AFF89F4
FF8AFF89F4
FF8AFF89F4
FF86995AF4
FFE9889FF4
EFFFFFFFF3
8FFFFFFFC0
07DFFFD910
ENDCHAR
STARTCHAR Ucircumflex
ENCODING 219
SWIDTH 578 0
DWIDTH 9 0
BBX 10 16 0 0
BITMAP
0002AA2000
000CEEC000
004F78F400
00AE77E900
00DDDDDC00
03FFFFFB00
5F8AFF8980
DF8AFF89F2
FF8AFF89F4
FF8AFF89F4
FF8AFF89F4
FF86995AF4
FFE9889FF4
EFFFFFFFF3
8FFFFFFFC0
07DFFFD910
ENDCHAR
STARTCHAR Udieresis
ENCODING 220
SWIDTH 578 0
DWIDTH 9 0
BBX 10 15 0 0
BITMAP
0004885000
009FFFFA00
01FABAAF20
00ECCCCE10
03CFFFF900
5F8AFF8980
DF8AFF89F2
FF8AFF89F4
FF8AFF89F4
FF8AFF89F4
FF86995AF4
FFE9889FF4
EFFFFFFFF3
8FFFFFFFC0
07DFFFD910
ENDCHAR
STARTCHAR Yacute
ENCODING 221
SWIDTH 578 0
DWIDTH 9 0
BBX 10 16 0 0
BITMAP
0000254000
0002FFFA00
0008F3EE00
000CD6F700
000ECDD100
038FFFD500
5FC3FF3D80
DFF4CC4FF2
FFFA66AFF4
FFFF23FFF4
FFFF78FFF4
FFFF89FFF4
FFFFCCFFF4
EFFFFFFFF3
8FFFFFFFC0
07DFFFD910
ENDCHAR
STARTCHAR Thorn
ENCODING 222
SWIDTH 578 0
DWIDTH 9 0
BBX 10 11 0 0
BITMAP
0387BB9500
5FE4FFFF80
DFE1224EF2
FFE4FF6BF4
FFE3CC5BF4
FFE1557FF4
FFE4FFFFF4
FFFAFFFFF4
EFFFFFFFF3
8FFFFFFFC0
07DFFFD910
ENDCHAR
STARTCHAR germandbls
ENCODING 223
SWIDTH 578 0
DWIDTH 9 0
BBX 10 11 0 0
BITMAP
038ABB9500
5FB2324F80
DF8AFF3FF2
FF8AFA5FF4
FF8AFA5CF4
FF8AFF89F4
FF8AB95AF4
FFCDA89FF4
EFFFFFFFF3
8FFFFFFFC0
07DFFFD910
ENDCHAR
STARTCHAR agrave
ENCODING 224
SWIDTH 578 0
DWIDTH 9 0
BBX 10 16 0 0
BITMAP
0015510000
02EFFB0000
04F99F2000
00DE5F6000
004FAF9000
038FFFC500
5FE2336F80
DFFFFF3FF2
FFFFFF4FF4
FF92223FF4
FF5DFF4FF4
FF67993FF4
FFE989AFF4
EFFFFFFFF3
8FFFFFFFC0
07DFFFD910
ENDCHAR
STARTCHAR aacute
ENCODING 225
SWIDTH 578 0
DWIDTH 9 0
BBX 10 16 0 0
BITMAP
0000254000
0002FFFB00
0007F3EE00
000CE6F800
000ECDD100
038FFFE500
5FE2336F80
DFFFFF3FF2
FFFFFF4FF4
FF92223FF4
FF5DFF4FF4
FF67993FF4
FFE989AFF4
EFFFFFFFF3
8FFFFFFFC0
07DFFFD910
ENDCHAR
STARTCHAR acircumflex
ENCODING 226
SWIDTH 578 0
DWIDTH 9 0
BBX 10 16 0 0
BITMAP
0002AA2000
000DEEC000
004F78F300
00AE77E900
00DDDDDC00
03FFFFFA00
5FE2336F80
DFFFFF3FF2
FFFFFF4FF4
FF92223FF4
FF5DFF4FF4
FF67993FF4
FFE989AFF4
EFFFFFFFF3
8FFFFFFFC0
07DFFFD910
ENDCHAR
STARTCHAR atilde
ENCODING 227
SWIDTH 578 0
DWIDTH 9 0
BBX 10 16 0 0
BITMAP
0000110000
004CFFD400
02EFFFFE20
06FEEFDF60
05F4547F60
03FFFFFF00
5FE2336F80
DFFFFF3FF2
FFFFFF4FF4
FF92223FF4
FF5DFF4FF4
FF67993FF4
FFE989AFF4
EFFFFFFFF3
8FFFFFFFC0
07DFFFD910
ENDCHAR
STARTCHAR adieresis
ENCODING 228
SWIDTH 578 0
DWIDTH 9 0
BBX 10 15 0 0
BITMAP
0004885000
009FFFFA00
01FABAAF10
00ECDCCE10
03CFFFF900
5FE2336F80
DFFFFF3FF2
FFFFFF4FF4
FF92223FF4
FF5DFF4FF4
FF67993FF4
FFE989AFF4
EFFFFFFFF3
8FFFFFFFC0
07DFFFD910
ENDCHAR
STARTCHAR aring
ENCODING 229
SWIDTH 578 0
DWIDTH 9 0
BBX 10 15 0 0
BITMAP
0019ED8000
009E78F700
00E9B8BC00
00EC54DC00
03FFFFFC00
5FE2336F80
DFFFFF3FF2
FFFFFF4FF4
FF92223FF4
FF5DFF4FF4
FF67993FF4
FFE989AFF4
EFFFFFFFF3
8FFFFFFFC0
07DFFFD910
ENDCHAR
STARTCHAR ae
ENCODING 230
SWIDTH 578 0
DWIDTH 9 0
BBX 10 11 0 0
BITMAP
038AAA9500
5FB2123A80
DF7A8AFFF2
FF6C88CEF4
FF4D846CF4
FF284AFFF4
FF29569DF4
FFAFC99DF4
EFFFFFFFF3
8FFFFFFFC0
07DFFFD910
ENDCHAR
STARTCHAR ccedilla
ENCODING 231
SWIDTH 578 0
DWIDTH 9 0
BBX 10 11 0 0
BITMAP
038ABB9500
5FA2338F80
DF7BFFFFF2
FF7BFFFFF4
FF7BFFFFF4
FF7BFFFFF4
FF7699BFF4
FFE827CFF4
EFF87EFFF3
8FFB4DFFC0
07DFFFD910
ENDCHAR
STARTCHAR egrave
ENCODING 232
SWIDTH 578 0
DWIDTH 9 0
BBX 10 16 0 0
BITMAP
0015500000
03EFFA0000
05F89F1000
01DE6F5000
005FAF8000
038FFFB500
5FA2337F80
DF6CFF2FF2
FF65662FF4
FF69CCCFF4
FF6CFFFFF4
FF84669FF4
FFFCCCEFF4
EFFFFFFFF3
8FFFFFFFC0
07DFFFD910
ENDCHAR
STARTCHAR eacute
ENCODING 233
SWIDTH 578 0
DWIDTH 9 0
BBX 10 16 0 0
BITMAP
0000353000
0005FFF700
000BE3FB00
001FA9F400
002FAFB000
038FFFB500
5FA2337F80
DF6CFF2FF2
FF65662FF4
FF69CCCFF4
FF6CFFFFF4
FF84669FF4
FFFCCCEFF4
EFFFFFFFF3
8FFFFFFFC0
07DFFFD910
ENDCHAR
STARTCHAR ecircumflex
ENCODING 234
SWIDTH 578 0
DWIDTH 9 0
BBX 10 16 0 0
BITMAP
0005A80000
003FDF7000
009F4BD000
01EAC7F400
03FBFBF700
03FFFFF700
5FA2337F80
DF6CFF2FF2
FF65662FF4
FF69CCCFF4
FF6CFFFFF4
FF84669FF4
FFFCCCEFF4
EFFFFFFFF3
8FFFFFFFC0
07DFFFD910
ENDCHAR
STARTCHAR edieresis
ENCODING 235
SWIDTH 578 0
DWIDTH 9 0
BBX 10 15 0 0
BITMAP
0017972000
02EFFFF400
07F6F6EA00
06F9FAF900
03FFFFF500
5FA2337F80
DF6CFF2FF2
FF65662FF4
FF69CCCFF4
FF6CFFFFF4
FF84669FF4
FFFCCCEFF4
EFFFFFFFF3
8FFFFFFFC0
07DFFFD910
ENDCHAR
STARTCHAR igrave
ENCODING 236
SWIDTH 578 0
DWIDTH 9 0
BBX 10 16 0 0
BITMAP
0015510000
02EFFC0000
04F98F2000
00CF5F6000
004FAF9000
038FFFC500
5FC3213B80
DFFFA8FFF2
FFFFA8FFF4
FFFFA8FFF4
FFFFA8FFF4
FFE9659DF4
FFE8888DF4
EFFFFFFFF3
8FFFFFFFC0
07DFFFD910
ENDCHAR
STARTCHAR iacute
ENCODING 237
SWIDTH 578 0
DWIDTH 9 0
BBX 10 16 0 0
BITMAP
0000254000
0002FFFB00
0007F4DE00
000BE6F800
000ECDE100
038FFFE500
5FC3213B80
DFFFA8FFF2
FFFFA8FFF4
FFFFA8FFF4
FFFFA8FFF4
FFE9659DF4
FFE8888DF4
EFFFFFFFF3
8FFFFFFFC0
07DFFFD910
ENDCHAR
STARTCHAR icircumflex
ENCODING 238
SWIDTH 578 0
DWIDTH 9 0
BBX 10 16 0 0
BITMAP
0002AA3000
000CEEC000
004F77F400
00AE77EA00
00DDDDDD00
03FFFFFB00
5FC3213B80
DFFFA8FFF2
FFFFA8FFF4
FFFFA8FFF4
FFFFA8FFF4
FFE9659DF4
FFE8888DF4
EFFFFFFFF3
8FFFFFFFC0
07DFFFD910
ENDCHAR
STARTCHAR idieresis
ENCODING 239
SWIDTH 578 0
DWIDTH 9 0
BBX 10 15 0 0
BITMAP
0004885000
009FFFFA00
01FABAAF20
00ECCCCE10
03CFFFF900
5FC3213B80
DFFFA8FFF2
FFFFA8FFF4
FFFFA8FFF4
FFFFA8FFF4
FFE9659DF4
FFE8888DF4
EFFFFFFFF3
8FFFFFFFC0
07DFFFD910
ENDCHAR
STARTCHAR eth
ENCODING 240
SWIDTH 578 0
DWIDTH 9 0
BBX 10 11 0 0
BITMAP
038ABB9500
5F82332C80
DF89FF98F2
FF89FF98F4
FF55FF98F4
FF89FF98F4
FF869959F4
FFC8889FF4
EFFFFFFFF3
8FFFFFFFC0
07DFFFD910
ENDCHAR
STARTCHAR ntilde
ENCODING 241
SWIDTH 578 0
DWIDTH 9 0
BBX 10 16 0 0
BITMAP
0000200000
007EFFA200
06FFFFFB00
0AFEFEEF10
0AE352CF10
05FFFFFC00
5F92333E80
DF8AFF7BF2
FF8AFF7BF4
FF8AFF7BF4
FF8AFF7BF4
FF8AFF7BF4
FFCDFFBDF4
EFFFFFFFF3
8FFFFFFFC0
07DFFFD910
ENDCHAR
STARTCHAR oacute
ENCODING 243
SWIDTH 578 0
DWIDTH 9 0
BBX 10 16 0 0
BITMAP
0000353000
0005FFF800
000AF3FB00
000EB9F500
002FAEB000
038FFFB500
5FC2332C80
DF89FF99F2
FF8AFF98F4
FF8AFF98F4
FF8AFF98F4
FF959959F4
FFF9889FF4
EFFFFFFFF3
8FFFFFFFC0
07DFFFD910
ENDCHAR
STARTCHAR ocircumflex
ENCODING 244
SWIDTH 578 0
DWIDTH 9 0
BBX 10 16 0 0
BITMAP
0002AA2000
000CEEC000
004F78F400
00AE77E900
00DDDDDC00
03FFFFFB00
5FC2332C80
DF89FF99F2
FF8AFF98F4
FF8AFF98F4
FF8AFF98F4
FF959959F4
FFF9889FF4
EFFFFFFFF3
8FFFFFFFC0
07DFFFD910
ENDCHAR
STARTCHAR otilde
ENCODING 245
SWIDTH 578 0
DWIDTH 9 0
BBX 10 16 0 0
BITMAP
0000110000
004DFFC300
03FFFFFE10
07FEFEDF50
06F3538F40
04FFFFFF00
5FC2332C80
DF89FF99F2
FF8AFF98F4
FF8AFF98F4
FF8AFF98F4
FF959959F4
FFF9889FF4
EFFFFFFFF3
8FFFFFFFC0
07DFFFD910
ENDCHAR
STARTCHAR odieresis
ENCODING 246
SWIDTH 578 0
DWIDTH 9 0
BBX 10 15 0 0
BITMAP
0004885000
009FFFFA00
01FABAAF20
00ECCCCE10
03CFFFF900
5FC2332C80
DF89FF99F2
FF8AFF98F4
FF8AFF98F4
FF8AFF98F4
FF959959F4
FFF9889FF4
EFFFFFFFF3
8FFFFFFFC0
07DFFFD910
ENDCHAR
STARTCHAR divide
ENCODING 247
SWIDTH 428 0
DWIDTH 7 0
BBX 7 11 0 0
BITMAP
038A8200
5FFAFF30
DFE6FFB0
FE334FD0
FFE4FFD0
FFFCFFD0
FFFFFFD0
FFFFFFD0
EFFFFFC0
8FFFFF60
07DEC600
ENDCHAR
STARTCHAR oslash
ENCODING 248
SWIDTH 578 0
DWIDTH 9 0
BBX 10 11 0 0
BITMAP
038AAA9500
5FB2331D80
DF7BF92AF2
FF7BD48AF4
FF7B5D8AF4
FF758F8AF4
FF80894BF4
FFE999AFF4
EFFFFFFFF3
8FFFFFFFC0
07DFFFD910
ENDCHAR
STARTCHAR ugrave
ENCODING 249
SWIDTH 578 0
DWIDTH 9 0
BBX 10 16 0 0
BITMAP
0015510000
02EFFC0000
04F98F2000
00CF5F6000
004FAF9000
038FFFC500
5F8AFF8980
DF8AFF89F2
FF8AFF89F4
FF8AFF89F4
FF8AFF89F4
FF86995AF4
FFE9889FF4
EFFFFFFFF3
8FFFFFFFC0
07DFFFD910
ENDCHAR
STARTCHAR uacute
ENCODING 250
SWIDTH 578 0
DWIDTH 9 0
BBX 10 16 0 0
BITMAP
0000254000
0002FFFB00
0007F4DE00
000BE6F800
000ECDE100
038FFFE500
5F8AFF8980
DF8AFF89F2
FF8AFF89F4
FF8AFF89F4
FF8AFF89F4
FF86995AF4
FFE9889FF4
EFFFFFFFF3
8FFFFFFFC0
07DFFFD910
ENDCHAR
STARTCHAR ucircumflex
ENCODING 251
SWIDTH 578 0
DWIDTH 9 0
BBX 10 16 0 0
BITMAP
0002AA3000
000CEEC000
004F77F400
00AE77EA00
00DDDDDD00
03FFFFFB00
5F8AFF8980
DF8AFF89F2
FF8AFF89F4
FF8AFF89F4
FF8AFF89F4
FF86995AF4
FFE9889FF4
EFFFFFFFF3
8FFFFFFFC0
07DFFFD910
ENDCHAR
STARTCHAR udieresis
ENCODING 252
SWIDTH 578 0
DWIDTH 9 0
BBX 10 15 0 0
BITMAP
0004885000
009FFFFA00
01FABAAF20
00ECCCCE10
03CFFFF900
5F8AFF8980
DF8AFF89F2
FF8AFF89F4
FF8AFF89F4
FF8AFF89F4
FF86995AF4
FFE9889FF4
EFFFFFFFF3
8FFFFFFFC0
07DFFFD910
ENDCHAR
STARTCHAR yacute
ENCODING 253
SWIDTH 578 0
DWIDTH 9 0
BBX 10 16 0 0
BITMAP
0000254000
0002FFFA00
0008F3EE00
000CD6F700
000ECDD100
038FFFD500
5FC3FF3D80
DFF4CC4FF2
FFFA66AFF4
FFFF23FFF4
FFFF78FFF4
FFFF89FFF4
FFFFCCFFF4
EFFFFFFFF3
8FFFFFFFC0
07DFFFD910
ENDCHAR
STARTCHAR thorn
ENCODING 254
SWIDTH 578 0
DWIDTH 9 0
BBX 10 11 0 0
BITMAP
0387BB9500
5FE4FFFF80
DFE1224EF2
FFE4FF6BF4
FFE3CC5BF4
FFE1557FF4
FFE4FFFFF4
FFFAFFFFF4
EFFFFFFFF3
8FFFFFFFC0
07DFFFD910
ENDCHAR
STARTCHAR ydieresis
ENCODING 255
SWIDTH 578 0
DWIDTH 9 0
BBX 10 15 0 0
BITMAP
0004884000
009FFFF900
01F9BABF10
01ECDCCE00
03CFFFF900
5FC3FF3D80
DFF4CC4FF2
FFFA66AFF4
FFFF23FFF4
FFFF78FFF4
FFFF89FFF4
FFFFCCFFF4
EFFFFFFFF3
8FFFFFFFC0
07DFFFD910
ENDCHAR
STARTCHAR Amacron
ENCODING 256
SWIDTH 578 0
DWIDTH 9 0
BBX 10 15 0 0
BITMAP
0017995000
02EFFFFB00
08FA88DF40
07FBAAEF30
04FFFFFD00
5FF4236F80
DFD5FF2FF2
FFB6FF3FF4
FFA2551DF4
FF88EE5CF4
FF6AFF7AF4
FFADFFCCF4
EFFFFFFFF3
8FFFFFFFC0
07DFFFD910
ENDCHAR
STARTCHAR amacron
ENCODING 257
SWIDTH 578 0
DWIDTH 9 0
BBX 10 15 0 0
BITMAP
0006996100
01CFFFFD10
05FB88CF60
05FCAADF50
03FFFFFF00
5FE2336F80
DFFFFF3FF2
FFFFFF4FF4
FF92223FF4
FF5DFF4FF4
FF67993FF4
FFE989AFF4
EFFFFFFFF3
8FFFFFFFC0
07DFFFD910
ENDCHAR
STARTCHAR Abreve
ENCODING 258
SWIDTH 578 0
DWIDTH 9 0
BBX 10 15 0 0
BITMAP
0017995000
02EFFFFB00
08FCEDDF40
07FA43DF30
04FFFFFD00
5FF4236F80
DFD5FF2FF2
FFB6FF3FF4
FFA2551DF4
FF88EE5CF4
FF6AFF7AF4
FFADFFCCF4
EFFFFFFFF3
8FFFFFFFC0
07DFFFD910
ENDCHAR
STARTCHAR abreve
ENCODING 259
SWIDTH 578 0
DWIDTH 9 0
BBX 10 15 0 0
BITMAP
0006996100
01CFFFFD10
05FDDEDF60
05FC33BF50
03FFFFFF00
5FE2336F80
DFFFFF3FF2
FFFFFF4FF4
FF92223FF4
FF5DFF4FF4
FF67993FF4
FFE989AFF4
EFFFFFFFF3
8FFFFFFFC0
07DFFFD910
ENDCHAR
STARTCHAR Aogonek
ENCODING 260
SWIDTH 578 0
DWIDTH 9 0
BBX 10 11 0 0
BITMAP
038ABB9500
5FF4236F80
DFD5FF2FF2
FFB6FF3FF4
FFA2551DF4
FF88EE5CF4
FF6AFF7AF4
FFADFF7BF4
EFFFFC7FF3
8FFFFD4BC0
07DFFFD910
ENDCHAR
STARTCHAR aogonek
ENCODING 261
SWIDTH 578 0
DWIDTH 9 0
BBX 10 11 0 0
BITMAP
038ABB9500
5FE2336F80
DFFFFF2FF2
FFFFFF2FF4
FF92222FF4
FF5DFF2FF4
FF67992FF4
FFE946AFF4
EFFD5FFFF3
8FFE4AFFC0
07DFFFD910
ENDCHAR
STARTCHAR Cacute
ENCODING 262
SWIDTH 578 0
DWIDTH 9 0
BBX 10 16 0 0
BITMAP
0000254000
0001EFFC00
0006F4DF00
000BE5F900
000DDCE100
038FFFF500
5FA2338F80
DF7BFFFFF2
FF7BFFFFF4
FF7BFFFFF4
FF7BFFFFF4
FF7699BFF4
FFE988CFF4
EFFFFFFFF3
8FFFFFFFC0
07DFFFD910
ENDCHAR
STARTCHAR cacute
ENCODING 263
SWIDTH 578 0
DWIDTH 9 0
BBX 10 16 0 0
BITMAP
0000254000
0002FFFB00
0007F4DE00
000CE6F800
000ECDD100
038FFFE500
5FA2338F80
DF7BFFFFF2
FF7BFFFFF4
FF7BFFFFF4
FF7BFFFFF4
FF7699BFF4
FFE988CFF4
EFFFFFFFF3
8FFFFFFFC0
07DFFFD910
ENDCHAR
STARTCHAR Ccircumflex
ENCODING 264
SWIDTH 578 0
DWIDTH 9 0
BBX 10 16 0 0
BITMAP
0003A91000
001EEEA000
006F78F200
00CD96F800
00FCECEB00
03FFFFF900
5FA2338F80
DF7BFFFFF2
FF7BFFFFF4
FF7BFFFFF4
FF7BFFFFF4
FF7699BFF4
FFE988CFF4
EFFFFFFFF3
8FFFFFFFC0
07DFFFD910
ENDCHAR
STARTCHAR ccircumflex
ENCODING 265
SWIDTH 578 0
DWIDTH 9 0
BBX 10 16 0 0
BITMAP
0003A91000
001EDEA000
007F68F200
00CD96F700
00FCECEA00
03FFFFF900
5FA2338F80
DF7BFFFFF2
FF7BFFFFF4
FF7BFFFFF4
FF7BFFFFF4
FF7699BFF4
FFE988CFF4
EFFFFFFFF3
8FFFFFFFC0
07DFFFD910
ENDCHAR
STARTCHAR Cdotaccent
ENCODING 266
SWIDTH 578 0
DWIDTH 9 0
BBX 10 15 0 0
BITMAP
0038A83000
06FFFFF600
0DFF8FFD00
0DFF7FFD00
09FFFFFB00
5FA2338F80
DF7BFFFFF2
FF7BFFFFF4
FF7BFFFFF4
FF7BFFFFF4
FF7699BFF4
FFE988CFF4
EFFFFFFFF3
8FFFFFFFC0
07DFFFD910
ENDCHAR
STARTCHAR cdotaccent
ENCODING 267
SWIDTH 578 0
DWIDTH 9 0
BBX 10 15 0 0
BITMAP
0027984000
04FFFFF800
0BFF8EFF10
0BFF8EFF00
07FFFFFD00
5FA2338F80
DF7BFFFFF2
FF7BFFFFF4
FF7BFFFFF4
FF7BFFFFF4
FF7699BFF4
FFE988CFF4
EFFFFFFFF3
8FFFFFFFC0
07DFFFD910
ENDCHAR
STARTCHAR Ccaron
ENCODING 268
SWIDTH 578 0
DWIDTH 9 0
BBX 10 16 0 0
BITMAP
0013031000
02EFEFF300
05F7F7F600
02FA99F300
00CF5EE000
03EFFFF500
5FA2338F80
DF7BFFFFF2
FF7BFFFFF4
FF7BFFFFF4
FF7BFFFFF4
FF7699BFF4
FFE988CFF4
EFFFFFFFF3
8FFFFFFFC0
07DFFFD910
ENDCHAR
STARTCHAR ccaron
ENCODING 269
SWIDTH 578 0
DWIDTH 9 0
BBX 10 16 0 0
BITMAP
0013122000
01DFEFF500
02F8E7F800
00ED98F500
00AF6DF100
03CFFFF500
5FA2338F80
DF7BFFFFF2
FF7BFFFFF4
FF7BFFFFF4
FF7BFFFFF4
FF7699BFF4
FFE988CFF4
EFFFFFFFF3
8FFFFFFFC0
07DFFFD910
ENDCHAR
STARTCHAR Dcaron
ENCODING 270
SWIDTH 578 0
DWIDTH 9 0
BBX 10 16 0 0
BITMAP
0013032000
01EFEFF400
03F8E7F700
01FC98F500
00BF6DF100
03DFFFF500
5F82332C80
DF89FF98F2
FF89FF98F4
FF89FF98F4
FF89FF98F4
FF869959F4
FFC8889FF4
EFFFFFFFF3
8FFFFFFFC0
07DFFFD910
ENDCHAR
STARTCHAR dcaron
ENCODING 271
SWIDTH 578 0
DWIDTH 9 0
BBX 10 11 0 0
BITMAP
038ABB9500
5E13326380
DE4FF987F2
FE4FFA8FF4
FE4FFA8FF4
FE4FFA8FF4
FE29959FF4
FE8889FFF4
EFFFFFFFF3
8FFFFFFFC0
07DFFFD910
ENDCHAR
STARTCHAR Dcroat
ENCODING 272
SWIDTH 578 0
DWIDTH 9 0
BBX 10 11 0 0
BITMAP
038ABB9500
5F82332C80
DF89FF98F2
FC55BF98F4
FD56CF98F4
FF89FF98F4
FF869959F4
FFC8889FF4
EFFFFFFFF3
8FFFFFFFC0
07DFFFD910
ENDCHAR
STARTCHAR dcroat
ENCODING 273
SWIDTH 578 0
DWIDTH 9 0
BBX 10 11 0 0
BITMAP
038ABB9500
5F82332C80
DF89FF98F2
FC55BF98F4
FD56CF98F4
FF89FF98F4
FF869959F4
FFC8889FF4
EFFFFFFFF3
8FFFFFFFC0
07DFFFD910
ENDCHAR
STARTCHAR Emacron
ENCODING 274
SWIDTH 578 0
DWIDTH 9 0
BBX 10 15 0 0
BITMAP
0006996100
01CFFFFD10
05FB88CF60
04FCAADF50
03FFFFFF00
5FF2333F80
DFF3FFFFF2
FFF3CCEFF4
FFF255AFF4
FFF3FFFFF4
FFF3999FF4
FFF9888EF4
EFFFFFFFF3
8FFFFFFFC0
07DFFFD910
ENDCHAR
STARTCHAR emacron
ENCODING 275
SWIDTH 578 0
DWIDTH 9 0
BBX 10 15 0 0
BITMAP
0028A84000
04FFFFF800
0BF888FF00
0AFAAAFE00
05FFFFFA00
5FA2337F80
DF6CFF2FF2
FF65662FF4
FF69CCCFF4
FF6CFFFFF4
FF84669FF4
FFFCCCEFF4
EFFFFFFFF3
8FFFFFFFC0
07DFFFD910
ENDCHAR
STARTCHAR Ebreve
ENCODING 276
SWIDTH 578 0
DWIDTH 9 0
BBX 10 15 0 0
BITMAP
0006996100
01CFFFFD10
05FDDEDF60
04FC33BF50
03FFFFFF00
5FF2333F80
DFF3FFFFF2
FFF3CCEFF4
FFF255AFF4
FFF3FFFFF4
FFF3999FF4
FFF9888EF4
EFFFFFFFF3
8FFFFFFFC0
07DFFFD910
ENDCHAR
STARTCHAR ebreve
ENCODING 277
SWIDTH 578 0
DWIDTH 9 0
BBX 10 15 0 0
BITMAP
0028A84000
04FFFFF800
0BFBFCFF00
0AF744FE00
05FFFFFA00
5FA2337F80
DF6CFF2FF2
FF65662FF4
FF69CCCFF4
FF6CFFFFF4
FF84669FF4
FFFCCCEFF4
EFFFFFFFF3
8FFFFFFFC0
07DFFFD910
ENDCHAR
STARTCHAR Edotaccent
ENCODING 278
SWIDTH 578 0
DWIDTH 9 0
BBX 10 15 0 0
BITMAP
0006996100
01CFFFFD10
05FFBBFF60
05FFBBFF60
03FFFFFF10
5FF2333F80
DFF3FFFFF2
FFF3CCEFF4
FFF255AFF4
FFF3FFFFF4
FFF3999FF4
FFF9888EF4
EFFFFFFFF3
8FFFFFFFC0
07DFFFD910
ENDCHAR
STARTCHAR edotaccent
ENCODING 279
SWIDTH 578 0
DWIDTH 9 0
BBX 10 15 0 0
BITMAP
0028A84000
04FFFFF800
0BFF8EFF00
0BFF8EFF00
08FFFFFD00
5FA2337F80
DF6CFF2FF2
FF65662FF4
FF69CCCFF4
FF6CFFFFF4
FF84669FF4
FFFCCCEFF4
EFFFFFFFF3
8FFFFFFFC0
07DFFFD910
ENDCHAR
STARTCHAR Eogonek
ENCODING 280
SWIDTH 578 0
DWIDTH 9 0
BBX 10 11 0 0
BITMAP
038ABB9500
5FF2333F80
DFF3FFFFF2
FFF3CCEFF4
FFF255AFF4
FFF3FFFFF4
FFF3999FF4
FFF9873EF4
EFFFF7CFF3
8FFFF94FC0
07DFFFD910
ENDCHAR
STARTCHAR eogonek
ENCODING 281
SWIDTH 578 0
DWIDTH 9 0
BBX 10 11 0 0
BITMAP
038ABB9500
5FA2337F80
DF6CFF2FF2
FF65662FF4
FF69CCCFF4
FF6CFFFFF4
FF84669FF4
FFFC87EFF4
EFFF4FFFF3
8FFF97FFC0
07DFFFD910
ENDCHAR
STARTCHAR Ecaron
ENCODING 282
SWIDTH 578 0
DWIDTH 9 0
BBX 10 16 0 0
BITMAP
0002213000
008FFEFA00
00CD9BBE00
009F77FB00
004FA9F700
039FFFF600
5FF2333F80
DFF3FFFFF2
FFF3CCEFF4
FFF255AFF4
FFF3FFFFF4
FFF3999FF4
FFF9888EF4
EFFFFFFFF3
8FFFFFFFC0
07DFFFD910
ENDCHAR
STARTCHAR ecaron
ENCODING 283
SWIDTH 578 0
DWIDTH 9 0
BBX 10 16 0 0
BITMAP
0013032000
01EFEFF400
03F8E7F700
01FC98F500
00BF6DF100
03DFFFF500
5FA2337F80
DF6CFF2FF2
FF65662FF4
FF69CCCFF4
FF6CFFFFF4
FF84669FF4
FFFCCCEFF4
EFFFFFFFF3
8FFFFFFFC0
07DFFFD910
ENDCHAR
STARTCHAR Gcircumflex
ENCODING 284
SWIDTH 578 0
DWIDTH 9 0
BBX 10 16 0 0
BITMAP
0004A91000
001EDF9000
007F69F100
00DCA6F600
01FCEBE900
03FFFFF900
5FD3333F80
DFA7FFFFF2
FFA7FFFFF4
FFA7F529F4
FFA7FF98F4
FFB49959F4
FFFA889FF4
EFFFFFFFF3
8FFFFFFFC0
07DFFFD910
ENDCHAR
STARTCHAR gcircumflex
ENCODING 285
SWIDTH 578 0
DWIDTH 9 0
BBX 10 16 0 0
BITMAP
0004A91000
001EDF9000
007F69F100
00DCA6F600
01FCEBE900
03FFFFF900
5FD3333F80
DFA7FFFFF2
FFA7FFFFF4
FFA7F529F4
FFA7FF98F4
FFB49959F4
FFFA889FF4
EFFFFFFFF3
8FFFFFFFC0
07DFFFD910
ENDCHAR
STARTCHAR Gbreve
ENCODING 286
SWIDTH 578 0
DWIDTH 9 0
BBX 10 15 0 0
BITMAP
0017995000
03EFFFFA00
09FCFDEF20
08F943EF20
04FFFFFC00
5FD3333F80
DFA7FFFFF2
FFA7FFFFF4
FFA7F529F4
FFA7FF98F4
FFB49959F4
FFFA889FF4
EFFFFFFFF3
8FFFFFFFC0
07DFFFD910
ENDCHAR
STARTCHAR gbreve
ENCODING 287
SWIDTH 578 0
DWIDTH 9 0
BBX 10 15 0 0
BITMAP
0028A84000
04FFFFF800
0BFBFCFF00
0AF744FE00
05FFFFFA00
5FD3333F80
DFA7FFFFF2
FFA7FFFFF4
FFA7F529F4
FFA7FF98F4
FFB49959F4
FFFA889FF4
EFFFFFFFF3
8FFFFFFFC0
07DFFFD910
ENDCHAR
STARTCHAR Gdotaccent
ENCODING 288
SWIDTH 578 0
DWIDTH 9 0
BBX 10 15 0 0
BITMAP
0028A84000
04FFFFF800
0BFF8EFF00
0BFF8EFF00
08FFFFFD00
5FD3333F80
DFA7FFFFF2
FFA7FFFFF4
FFA7F529F4
FFA7FF98F4
FFB49959F4
FFFA889FF4
EFFFFFFFF3
8FFFFFFFC0
07DFFFD910
ENDCHAR
STARTCHAR gdotaccent
ENCODING 289
SWIDTH 578 0
DWIDTH 9 0
BBX 10 15 0 0
BITMAP
0028A84000
04FFFFF800
0BFF8EFF00
0BFF8EFF00
08FFFFFD00
5FD3333F80
DFA7FFFFF2
FFA7FFFFF4
FFA7F529F4
FFA7FF98F4
FFB49959F4
FFFA889FF4
EFFFFFFFF3
8FFFFFFFC0
07DFFFD910
ENDCHAR
STARTCHAR Gcommaaccent
ENCODING 290
SWIDTH 578 0
DWIDTH 9 0
BBX 10 11 0 0
BITMAP
038ABB9500
5FD3333F80
DFA7FFFFF2
FFA7FFFFF4
FFA7F529F4
FFA7FF98F4
FFB49959F4
FFFA889FF4
EFFF85FFF3
8FFFD8FFC0
07DFFFD910
ENDCHAR
STARTCHAR gcommaaccent
ENCODING 291
SWIDTH 578 0
DWIDTH 9 0
BBX 10 11 0 0
BITMAP
038ABB9500
5FD3333F80
DFA7FFFFF2
FFA7FFFFF4
FFA7F529F4
FFA7FF98F4
FFB49959F4
FFFA889FF4
EFFF85FFF3
8FFFD8FFC0
07DFFFD910
ENDCHAR
STARTCHAR Hcircumflex
ENCODING 292
SWIDTH 578 0
DWIDTH 9 0
BBX 10 16 0 0
BITMAP
0004A91000
001EDE9000
007F69F100
00CC96F700
00FCECEA00
03FFFFF900
5F89FFA880
DF89FFA8F2
FF87BB78F4
FF847748F4
FF89FFA8F4
FF89FFA8F4
FFCCFFDCF4
EFFFFFFFF3
8FFFFFFFC0
07DFFFD910
ENDCHAR
STARTCHAR hcircumflex
ENCODING 293
SWIDTH 578 0
DWIDTH 9 0
BBX 10 16 0 0
BITMAP
0003A92000
000EEEA000
006F78F200
00CD87F800
00ECECEB00
03FFFFF900
5F89FFA880
DF89FFA8F2
FF87BB78F4
FF847748F4
FF89FFA8F4
FF89FFA8F4
FFCCFFDCF4
EFFFFFFFF3
8FFFFFFFC0
07DFFFD910
ENDCHAR
STARTCHAR Hbar
ENCODING 294
SWIDTH 578 0
DWIDTH 9 0
BBX 10 15 0 0
BITMAP
0017995000
03EFFFFA00
09F988EF20
08FBAAEF20
04FFFFFC00
5F89FFA880
DF89FFA8F2
FF87BB78F4
FF847748F4
FF89FFA8F4
FF89FFA8F4
FFCCFFDCF4
EFFFFFFFF3
8FFFFFFFC0
07DFFFD910
ENDCHAR
STARTCHAR hbar
ENCODING 295
SWIDTH 578 0
DWIDTH 9 0
BBX 10 11 0 0
BITMAP
038ABB9500
5F89FFA880
DF534434F2
FF87BB78F4
FF847748F4
FF89FFA8F4
FF89FFA8F4
FFCCFFDCF4
EFFFFFFFF3
8FFFFFFFC0
07DFFFD910
ENDCHAR
STARTCHAR Itilde
ENCODING 296
SWIDTH 578 0
DWIDTH 9 0
BBX 10 16 0 0
BITMAP
0000110000
003CFFD500
01EFFFFF30
04FFEFDF70
04F5546F70
03FFFFFF10
5FC3213B80
DFFFA8FFF2
FFFFA8FFF4
FFFFA8FFF4
FFFFA8FFF4
FFE9659DF4
FFE8888DF4
EFFFFFFFF3
8FFFFFFFC0
07DFFFD910
ENDCHAR
STARTCHAR itilde
ENCODING 297
SWIDTH 578 0
DWIDTH 9 0
BBX 10 16 0 0
BITMAP
0000110000
003CFFD400
01EFFFFF20
05FEEFDF70
04F4546F60
03FFFFFF10
5FC3213B80
DFFFA8FFF2
FFFFA8FFF4
FFFFA8FFF4
FFFFA8FFF4
FFE9659DF4
FFE8888DF4
EFFFFFFFF3
8FFFFFFFC0
07DFFFD910
ENDCHAR
STARTCHAR Imacron
ENCODING 298
SWIDTH 578 0
DWIDTH 9 0
BBX 10 15 0 0
BITMAP
0016996100
01DFFFFC10
06FB88DF50
05FCAADF50
03FFFFFF00
5FC3213B80
DFFFA8FFF2
FFFFA8FFF4
FFFFA8FFF4
FFFFA8FFF4
FFE9659DF4
FFE8888DF4
EFFFFFFFF3
8FFFFFFFC0
07DFFFD910
ENDCHAR
STARTCHAR imacron
ENCODING 299
SWIDTH 578 0
DWIDTH 9 0
BBX 10 15 0 0
BITMAP
0016996000
01DFFFFC10
06FA88DF50
06FCAADF40
03FFFFFE00
5FC3213B80
DFFFA8FFF2
FFFFA8FFF4
FFFFA8FFF4
FFFFA8FFF4
FFE9659DF4
FFE8888DF4
EFFFFFFFF3
8FFFFFFFC0
07DFFFD910
ENDCHAR
STARTCHAR Ibreve
ENCODING 300
SWIDTH 578 0
DWIDTH 9 0
BBX 10 15 0 0
BITMAP
0005997100
00CFFFFD20
04FDDECF70
03FD34AF60
03FFFFFF10
5FC3213B80
DFFFA8FFF2
FFFFA8FFF4
FFFFA8FFF4
FFFFA8FFF4
FFE9659DF4
FFE8888DF4
EFFFFFFFF3
8FFFFFFFC0
07DFFFD910
ENDCHAR
STARTCHAR ibreve
ENCODING 301
SWIDTH 578 0
DWIDTH 9 0
BBX 10 15 0 0
BITMAP
0006996100
01CFFFFD10
05FDDECF60
04FC33BF60
03FFFFFF00
5FC3213B80
DFFFA8FFF2
FFFFA8FFF4
FFFFA8FFF4
FFFFA8FFF4
FFE9659DF4
FFE8888DF4
EFFFFFFFF3
8FFFFFFFC0
07DFFFD910
ENDCHAR
STARTCHAR Iogonek
ENCODING 302
SWIDTH 578 0
DWIDTH 9 0
BBX 10 11 0 0
BITMAP
038ABB9500
5FC3213B80
DFFFA8FFF2
FFFFA8FFF4
FFFFA8FFF4
FFFFA8FFF4
FFE9659DF4
FFE8883CF4
EFFFFB8FF3
8FFFFD4CC0
07DFFFD910
ENDCHAR
STARTCHAR iogonek
ENCODING 303
SWIDTH 578 0
DWIDTH 9 0
BBX 10 11 0 0
BITMAP
038ABB9500
5FC3213B80
DFFFA8FFF2
FFFFA8FFF4
FFFFA8FFF4
FFFFA8FFF4
FFE9659DF4
FFE8883CF4
EFFFFB7FF3
8FFFFD4CC0
07DFFFD910
ENDCHAR
STARTCHAR Idotaccent
ENCODING 304
SWIDTH 578 0
DWIDTH 9 0
BBX 10 15 0 0
BITMAP
0017995000
02EFFFFA00
09FFADFF30
08FF9DFF20
05FFFFFF00
5FC3213B80
DFFFA8FFF2
FFFFA8FFF4
FFFFA8FFF4
FFFFA8FFF4
FFE9659DF4
FFE8888DF4
EFFFFFFFF3
8FFFFFFFC0
07DFFFD910
ENDCHAR
STARTCHAR dotlessi
ENCODING 305
SWIDTH 578 0
DWIDTH 9 0
BBX 10 11 0 0
BITMAP
038ABB9500
5FC3213B80
DFFFA8FFF2
FFFFA8FFF4
FFFFA8FFF4
FFFFA8FFF4
FFE9659DF4
FFE8888DF4
EFFFFFFFF3
8FFFFFFFC0
07DFFFD910
ENDCHAR
STARTCHAR IJ
ENCODING 306
SWIDTH 578 0
DWIDTH 9 0
BBX 10 11 0 0
BITMAP
038ABB9500
57217FE480
DF98FFE4F2
FF98FFE4F4
FF98FFE4F4
FF98FFE4F4
FC65BA84F4
FB88B99DF4
EFFFFFFFF3
8FFFFFFFC0
07DFFFD910
ENDCHAR
STARTCHAR ij
ENCODING 307
SWIDTH 578 0
DWIDTH 9 0
BBX 10 11 0 0
BITMAP
038ABB9500
57217FE480
DF98FFE4F2
FF98FFE4F4
FF98FFE4F4
FF98FFE4F4
FC65BA84F4
FB88B99DF4
EFFFFFFFF3
8FFFFFFFC0
07DFFFD910
ENDCHAR
STARTCHAR Jcircumflex
ENCODING 308
SWIDTH 578 0
DWIDTH 9 0
BBX 10 16 0 0
BITMAP
0003AA2000
000DEEB000
005F78F300
00BE87F900
00DDDCDC00
03FFFFFA00
5FFFF5DF80
DFFFF5DFF2
FFFFF5DFF4
FFFFF5DFF4
FFFFF5DFF4
FFFC92DFF4
FFFC8BFFF4
EFFFFFFFF3
8FFFFFFFC0
07DFFFD910
ENDCHAR
STARTCHAR jcircumflex
ENCODING 309
SWIDTH 578 0
DWIDTH 9 0
BBX 10 16 0 0
BITMAP
0003AA2000
000DEEB000
005F78F300
00BE87F900
00DDDCDC00
03FFFFFA00
5FFFF5DF80
DFFFF5DFF2
FFFFF5DFF4
FFFFF5DFF4
FFFFF5DFF4
FFFC92DFF4
FFFC8BFFF4
EFFFFFFFF3
8FFFFFFFC0
07DFFFD910
ENDCHAR
STARTCHAR Kcommaaccent
ENCODING 310
SWIDTH 578 0
DWIDTH 9 0
BBX 10 11 0 0
BITMAP
038ABB9400
5FF3FF7780
DFF3F75FF2
FFF375FFF4
FFF328FFF4
FFF3E4AFF4
FFF3FE3BF4
FFF9FFDCF4
EFFF85FFF3
8FFFD8FFC0
07DFFFD910
ENDCHAR
STARTCHAR kcommaaccent
ENCODING 311
SWIDTH 578 0
DWIDTH 9 0
BBX 10 11 0 0
BITMAP
038ABB9400
5FF3FF7780
DFF3F75FF2
FFF375FFF4
FFF328FFF4
FFF3E4AFF4
FFF3FE3BF4
FFF9FFDCF4
EFFF85FFF3
8FFFD8FFC0
07DFFFD910
ENDCHAR
STARTCHAR kgreenlandic
ENCODING 312
SWIDTH 578 0
DWIDTH 9 0
BBX 10 11 0 0
BITMAP
038ABB9400
5FF3FF7780
DFF3F75FF2
FFF375FFF4
FFF328FFF4
FFF3E4AFF4
FFF3FE3BF4
FFF9FFDCF4
EFFFFFFFF3
8FFFFFFFC0
07DFFFD910
ENDCHAR
STARTCHAR Lacute
ENCODING 313
SWIDTH 578 0
DWIDTH 9 0
BBX 10 16 0 0
BITMAP
0002540000
001EFFC000
006F5CF100
00AF5F9000
00DDCE1000
03EFFF9500
5FF8AFFF80
DFF8AFFFF2
FFF8AFFFF4
FFF8AFFFF4
FFF8AFFFF4
FFF869BFF4
FFFC88AFF4
EFFFFFFFF3
8FFFFFFFC0
07DFFFD910
ENDCHAR
STARTCHAR lacute
ENCODING 314
SWIDTH 578 0
DWIDTH 9 0
BBX 10 16 0 0
BITMAP
0002540000
001EFFC000
006F5CF100
00AF5F9000
00DDCE1000
03EFFF9500
5FF8AFFF80
DFF8AFFFF2
FFF8AFFFF4
FFF8AFFFF4
FFF8AFFFF4
FFF869BFF4
FFFC88AFF4
EFFFFFFFF3
8FFFFFFFC0
07DFFFD910
ENDCHAR
STARTCHAR Lcommaaccent
ENCODING 315
SWIDTH 578 0
DWIDTH 9 0
BBX 10 11 0 0
BITMAP
038ABB9500
5FF8AFFF80
DFF8AFFFF2
FFF8AFFFF4
FFF8AFFFF4
FFF8AFFFF4
FFF869BFF4
FFFC88AFF4
EFFF85FFF3
8FFFD8FFC0
07DFFFD910
ENDCHAR
STARTCHAR lcommaaccent
ENCODING 316
SWIDTH 578 0
DWIDTH 9 0
BBX 10 11 0 0
BITMAP
038ABB9500
5FF8AFFF80
DFF8AFFFF2
FFF8AFFFF4
FFF8AFFFF4
FFF8AFFFF4
FFF869BFF4
FFFC88AFF4
EFFF85FFF3
8FFFD8FFC0
07DFFFD910
ENDCHAR
STARTCHAR Lcaron
ENCODING 317
SWIDTH 578 0
DWIDTH 9 0
BBX 10 11 0 0
BITMAP
038ABB9500
5FF8A66F80
DFF8ACAFF2
FFF8AFFFF4
FFF8AFFFF4
FFF8AFFFF4
FFF869BFF4
FFFC88AFF4
EFFFFFFFF3
8FFFFFFFC0
07DFFFD910
ENDCHAR
STARTCHAR lcaron
ENCODING 318
SWIDTH 578 0
DWIDTH 9 0
BBX 10 11 0 0
BITMAP
038ABB9500
5FF8A66F80
DFF8ACAFF2
FFF8AFFFF4
FFF8AFFFF4
FFF8AFFFF4
FFF869BFF4
FFFC88AFF4
EFFFFFFFF3
8FFFFFFFC0
07DFFFD910
ENDCHAR
STARTCHAR Ldot
ENCODING 319
SWIDTH 578 0
DWIDTH 9 0
BBX 10 11 0 0
BITMAP
038ABB9500
5FF8AFFF80
DFF8AFFFF2
FFF8A1EFF4
FFF8AFFFF4
FFF8AFFFF4
FFF869BFF4
FFFC88AFF4
EFFFFFFFF3
8FFFFFFFC0
07DFFFD910
ENDCHAR
STARTCHAR ldot
ENCODING 320
SWIDTH 578 0
DWIDTH 9 0
BBX 10 11 0 0
BITMAP
038ABB9500
5FF8AFFF80
DFF8AFFFF2
FFF8A1EFF4
FFF8AFFFF4
FFF8AFFFF4
FFF869BFF4
FFFC88AFF4
EFFFFFFFF3
8FFFFFFFC0
07DFFFD910
ENDCHAR
STARTCHAR Lslash
ENCODING 321
SWIDTH 578 0
DWIDTH 9 0
BBX 10 11 0 0
BITMAP
038ABB9500
5FF8AFFF80
DFF8AFFFF2
FFF84DFFF4
FFC3AFFFF4
FFF8AFFFF4
FFF869BFF4
FFFC88AFF4
EFFFFFFFF3
8FFFFFFFC0
07DFFFD910
ENDCHAR
STARTCHAR lslash
ENCODING 322
SWIDTH 578 0
DWIDTH 9 0
BBX 10 11 0 0
BITMAP
038ABB9500
5FF8AFFF80
DFF8AFFFF2
FFF84DFFF4
FFC3AFFFF4
FFF8AFFFF4
FFF869BFF4
FFFC88AFF4
EFFFFFFFF3
8FFFFFFFC0
07DFFFD910
ENDCHAR
STARTCHAR Nacute
ENCODING 323
SWIDTH 578 0
DWIDTH 9 0
BBX 10 16 0 0
BITMAP
0000353000
0005FFF700
000BE3FB00
001FA9F400
002FAFB000
038FFFB500
5F92333E80
DF8AFF7BF2
FF8AFF7BF4
FF8AFF7BF4
FF8AFF7BF4
FF8AFF7BF4
FFCDFFBDF4
EFFFFFFFF3
8FFFFFFFC0
07DFFFD910
ENDCHAR
STARTCHAR nacute
ENCODING 324
SWIDTH 578 0
DWIDTH 9 0
BBX 10 16 0 0
BITMAP
0000353000
0005FFF700
000BE3FB00
001FA9F400
002FAFB000
038FFFB500
5F92333E80
DF8AFF7BF2
FF8AFF7BF4
FF8AFF7BF4
FF8AFF7BF4
FF8AFF7BF4
FFCDFFBDF4
EFFFFFFFF3
8FFFFFFFC0
07DFFFD910
ENDCHAR
STARTCHAR Ncommaaccent
ENCODING 325
SWIDTH 578 0
DWIDTH 9 0
BBX 10 11 0 0
BITMAP
038ABB9500
5F92333E80
DF8AFF7BF2
FF8AFF7BF4
FF8AFF7BF4
FF8AFF7BF4
FF8AFF7BF4
FFCDFFBDF4
EFFF85FFF3
8FFFD8FFC0
07DFFFD910
ENDCHAR
STARTCHAR ncommaaccent
ENCODING 326
SWIDTH 578 0
DWIDTH 9 0
BBX 10 11 0 0
BITMAP
038ABB9500
5F92333E80
DF8AFF7BF2
FF8AFF7BF4
FF8AFF7BF4
FF8AFF7BF4
FF8AFF7BF4
FFCDFFBDF4
EFFF85FFF3
8FFFD8FFC0
07DFFFD910
ENDCHAR
STARTCHAR Ncaron
ENCODING 327
SWIDTH 578 0
DWIDTH 9 0
BBX 10 16 0 0
BITMAP
0013032000
01EFEFF400
03F8E7F700
01FC98F500
00BF6DF100
03DFFFF500
5F92333E80
DF8AFF7BF2
FF8AFF7BF4
FF8AFF7BF4
FF8AFF7BF4
FF8AFF7BF4
FFCDFFBDF4
EFFFFFFFF3
8FFFFFFFC0
07DFFFD910
ENDCHAR
STARTCHAR ncaron
ENCODING 328
SWIDTH 578 0
DWIDTH 9 0
BBX 10 16 0 0
BITMAP
0013032000
01EFEFF400
03F8E7F700
01FC98F500
00BF6DF100
03DFFFF500
5F92333E80
DF8AFF7BF2
FF8AFF7BF4
FF8AFF7BF4
FF8AFF7BF4
FF8AFF7BF4
FFCDFFBDF4
EFFFFFFFF3
8FFFFFFFC0
07DFFFD910
ENDCHAR
STARTCHAR napostrophe
ENCODING 329
SWIDTH 578 0
DWIDTH 9 0
BBX 10 11 0 0
BITMAP
038ABB9500
4B92333E80
B18AFF7BF2
F98AFF7BF4
FF8AFF7BF4
FF8AFF7BF4
FF8AFF7BF4
FFCDFFBDF4
EFFFFFFFF3
8FFFFFFFC0
07DFFFD910
ENDCHAR
STARTCHAR Eng
ENCODING 330
SWIDTH 578 0
DWIDTH 9 0
BBX 10 11 0 0
BITMAP
038ABB9500
5F92333E80
DF8AFF7BF2
FF8AFF7BF4
FF8AFF7BF4
FF8AFF7BF4
FF8AFF7BF4
FFCDFF7BF4
EFFFFE5BF3
8FFFB46EC0
07DFFFD910
ENDCHAR
STARTCHAR eng
ENCODING 331
SWIDTH 578 0
DWIDTH 9 0
BBX 10 11 0 0
BITMAP
038ABB9500
5F92333E80
DF8AFF7BF2
FF8AFF7BF4
FF8AFF7BF4
FF8AFF7BF4
FF8AFF7BF4
FFCDFF7BF4
EFFFFE5BF3
8FFFB46EC0
07DFFFD910
ENDCHAR
STARTCHAR Omacron
ENCODING 332
SWIDTH 578 0
DWIDTH 9 0
BBX 10 15 0 0
BITMAP
0016996100
01DFFFFC10
06FB88DF50
05FCAADF50
03FFFFFF00
5FC2332C80
DF89FF99F2
FF8AFF98F4
FF8AFF98F4
FF8AFF98F4
FF959959F4
FFF9889FF4
EFFFFFFFF3
8FFFFFFFC0
07DFFFD910
ENDCHAR
STARTCHAR omacron
ENCODING 333
SWIDTH 578 0
DWIDTH 9 0
BBX 10 15 0 0
BITMAP
0016996100
01DFFFFC10
06FB88DF50
05FCAADF50
03FFFFFF00
5FC2332C80
DF89FF99F2
FF8AFF98F4
FF8AFF98F4
FF8AFF98F4
FF959959F4
FFF9889FF4
EFFFFFFFF3
8FFFFFFFC0
07DFFFD910
ENDCHAR
STARTCHAR Obreve
ENCODING 334
SWIDTH 578 0
DWIDTH 9 0
BBX 10 15 0 0
BITMAP
0016996100
01DFFFFC10
06FDEEDF50
05FC33CF50
03FFFFFF00
5FC2332C80
DF89FF99F2
FF8AFF98F4
FF8AFF98F4
FF8AFF98F4
FF959959F4
FFF9889FF4
EFFFFFFFF3
8FFFFFFFC0
07DFFFD910
ENDCHAR
STARTCHAR obreve
ENCODING 335
SWIDTH 578 0
DWIDTH 9 0
BBX 10 15 0 0
BITMAP
0016996100
01DFFFFC10
06FDEEDF50
05FC33CF50
03FFFFFF00
5FC2332C80
DF89FF99F2
FF8AFF98F4
FF8AFF98F4
FF8AFF98F4
FF959959F4
FFF9889FF4
EFFFFFFFF3
8FFFFFFFC0
07DFFFD910
ENDCHAR
STARTCHAR Ohungarumlaut
ENCODING 336
SWIDTH 578 0
DWIDTH 9 0
BBX 10 16 0 0
BITMAP
0000386820
0001EFFF90
0009F6D7F2
002FAC8EB0
007FBFBE20
03CFFFFA00
5FC2332C80
DF89FF99F2
FF8AFF98F4
FF8AFF98F4
FF8AFF98F4
FF959959F4
FFF9889FF4
EFFFFFFFF3
8FFFFFFFC0
07DFFFD910
ENDCHAR
STARTCHAR ohungarumlaut
ENCODING 337
SWIDTH 578 0
DWIDTH 9 0
BBX 10 16 0 0
BITMAP
0000386820
0001EFFF90
0009F6D7F2
002FAC8EB0
007FBFBE20
03CFFFFA00
5FC2332C80
DF89FF99F2
FF8AFF98F4
FF8AFF98F4
FF8AFF98F4
FF959959F4
FFF9889FF4
EFFFFFFFF3
8FFFFFFFC0
07DFFFD910
ENDCHAR
STARTCHAR OE
ENCODING 338
SWIDTH 578 0
DWIDTH 9 0
BBX 10 11 0 0
BITMAP
038ABB9500
5E33223880
DC6F98FFF2
FC6F97CEF4
FC6F935CF4
FC6F98FFF4
FD39559BF4
FFA8998AF4
EFFFFFFFF3
8FFFFFFFC0
07DFFFD910
ENDCHAR
STARTCHAR oe
ENCODING 339
SWIDTH 578 0
DWIDTH 9 0
BBX 10 11 0 0
BITMAP
038ABB9500
5E33223880
DC6F98FFF2
FC6F97CEF4
FC6F935CF4
FC6F98FFF4
FD39559BF4
FFA8998AF4
EFFFFFFFF3
8FFFFFFFC0
07DFFFD910
ENDCHAR
STARTCHAR Racute
ENCODING 340
SWIDTH 578 0
DWIDTH 9 0
BBX 10 16 0 0
BITMAP
0000353000
0005FFF700
000BE3FB00
001FA9F400
002FAFB000
038FFFB500
5FA1325F80
DFA7FF2FF2
FFA7FE3FF4
FFA1228FF4
FFA7FF3EF4
FFA7FF4EF4
FFDBFFAFF4
EFFFFFFFF3
8FFFFFFFC0
07DFFFD910
ENDCHAR
STARTCHAR racute
ENCODING 341
SWIDTH 578 0
DWIDTH 9 0
BBX 10 16 0 0
BITMAP
0000353000
0005FFF700
000BE3FB00
001FA9F400
002FAFB000
038FFFB500
5FA1325F80
DFA7FF2FF2
FFA7FE3FF4
FFA1228FF4
FFA7FF3EF4
FFA7FF4EF4
FFDBFFAFF4
EFFFFFFFF3
8FFFFFFFC0
07DFFFD910
ENDCHAR
STARTCHAR Rcommaaccent
ENCODING 342
SWIDTH 578 0
DWIDTH 9 0
BBX 10 11 0 0
BITMAP
038ABB9500
5FA1325F80
DFA7FF2FF2
FFA7FE3FF4
FFA1228FF4
FFA7FF3EF4
FFA7FF4EF4
FFDBFFAFF4
EFFF85FFF3
8FFFD8FFC0
07DFFFD910
ENDCHAR
STARTCHAR rcommaaccent
ENCODING 343
SWIDTH 578 0
DWIDTH 9 0
BBX 10 11 0 0
BITMAP
038ABB9500
5FA1325F80
DFA7FF2FF2
FFA7FE3FF4
FFA1228FF4
FFA7FF3EF4
FFA7FF4EF4
FFDBFFAFF4
EFFF85FFF3
8FFFD8FFC0
07DFFFD910
ENDCHAR
STARTCHAR Rcaron
ENCODING 344
SWIDTH 578 0
DWIDTH 9 0
BBX 10 16 0 0
BITMAP
0013032000
01EFEFF400
03F8E7F700
01FC98F500
00BF6DF100
03DFFFF500
5FA1325F80
DFA7FF2FF2
FFA7FE3FF4
FFA1228FF4
FFA7FF3EF4
FFA7FF4EF4
FFDBFFAFF4
EFFFFFFFF3
8FFFFFFFC0
07DFFFD910
ENDCHAR
STARTCHAR rcaron
ENCODING 345
SWIDTH 578 0
DWIDTH 9 0
BBX 10 16 0 0
BITMAP
0013032000
01EFEFF400
03F8E7F700
01FC98F500
00BF6DF100
03DFFFF500
5FA1325F80
DFA7FF2FF2
FFA7FE3FF4
FFA1228FF4
FFA7FF3EF4
FFA7FF4EF4
FFDBFFAFF4
EFFFFFFFF3
8FFFFFFFC0
07DFFFD910
ENDCHAR
STARTCHAR Sacute
ENCODING 346
SWIDTH 578 0
DWIDTH 9 0
BBX 10 16 0 0
BITMAP
0000254000
0001EFFC00
0006F5DF10
000AE5F900
000DDCE100
038FFFF500
5FE3333F80
DFB7FFFFF2
FFB4BCDFF4
FFF8662CF4
FFFFFF7BF4
FFF9994BF4
FFF988AFF4
EFFFFFFFF3
8FFFFFFFC0
07DFFFD910
ENDCHAR
STARTCHAR sacute
ENCODING 347
SWIDTH 578 0
DWIDTH 9 0
BBX 10 16 0 0
BITMAP
0000254000
0001EFFC00
0006F5DF10
000AE5F900
000DDCE100
038FFFF500
5FE3333F80
DFB7FFFFF2
FFB4BCDFF4
FFF8662CF4
FFFFFF7BF4
FFF9994BF4
FFF988AFF4
EFFFFFFFF3
8FFFFFFFC0
07DFFFD910
ENDCHAR
STARTCHAR Scircumflex
ENCODING 348
SWIDTH 578 0
DWIDTH 9 0
BBX 10 16 0 0
BITMAP
00029A3000
000BEED000
003F87F500
008F78DB00
00BECDCE00
03EFFFFC00
5FE3333F80
DFB7FFFFF2
FFB4BCDFF4
FFF8662CF4
FFFFFF7BF4
FFF9994BF4
FFF988AFF4
EFFFFFFFF3
8FFFFFFFC0
07DFFFD910
ENDCHAR
STARTCHAR scircumflex
ENCODING 349
SWIDTH 578 0
DWIDTH 9 0
BBX 10 16 0 0
BITMAP
00029A3000
000BEED000
003F87F500
008F78DB00
00BECDCE00
03EFFFFC00
5FE3333F80
DFB7FFFFF2
FFB4BCDFF4
FFF8662CF4
FFFFFF7BF4
FFF9994BF4
FFF988AFF4
EFFFFFFFF3
8FFFFFFFC0
07DFFFD910
ENDCHAR
STARTCHAR Scedilla
ENCODING 350
SWIDTH 578 0
DWIDTH 9 0
BBX 10 11 0 0
BITMAP
038ABB9500
5FE3333F80
DFB7FFFFF2
FFB4BCDFF4
FFF8662CF4
FFFFFF7BF4
FFF9994BF4
FFF945AFF4
EFFC4DFFF3
8FFE4AFFC0
07DFFFD910
ENDCHAR
STARTCHAR scedilla
ENCODING 351
SWIDTH 578 0
DWIDTH 9 0
BBX 10 11 0 0
BITMAP
038ABB9500
5FE3333F80
DFB7FFFFF2
FFB4BCDFF4
FFF8662CF4
FFFFFF7BF4
FFF9994BF4
FFF945AFF4
EFFC4DFFF3
8FFE4AFFC0
07DFFFD910
ENDCHAR
STARTCHAR Scaron
ENCODING 352
SWIDTH 578 0
DWIDTH 9 0
BBX 10 16 0 0
BITMAP
0002213000
007FFEFC00
00AE8CAF00
008F77EC00
003FB8F800
038FFFF700
5FE3333F80
DFB7FFFFF2
FFB4BCDFF4
FFF8662CF4
FFFFFF7BF4
FFF9994BF4
FFF988AFF4
EFFFFFFFF3
8FFFFFFFC0
07DFFFD910
ENDCHAR
STARTCHAR scaron
ENCODING 353
SWIDTH 578 0
DWIDTH 9 0
BBX 10 16 0 0
BITMAP
0002213000
007FFEFC00
00AE8CAF00
008F77EC00
003FB8F800
038FFFF700
5FE3333F80
DFB7FFFFF2
FFB4BCDFF4
FFF8662CF4
FFFFFF7BF4
FFF9994BF4
FFF988AFF4
EFFFFFFFF3
8FFFFFFFC0
07DFFFD910
ENDCHAR
STARTCHAR Tcommaaccent
ENCODING 354
SWIDTH 578 0
DWIDTH 9 0
BBX 10 11 0 0
BITMAP
038ABB9500
5FC3213B80
DFFFA8FFF2
FFFFA8FFF4
FFFFA8FFF4
FFFFA8FFF4
FFFFA8FFF4
FFFFDCFFF4
EFFF85FFF3
8FFFD8FFC0
07DFFFD910
ENDCHAR
STARTCHAR tcommaaccent
ENCODING 355
SWIDTH 578 0
DWIDTH 9 0
BBX 10 11 0 0
BITMAP
038ABB9500
5FC3213B80
DFFFA8FFF2
FFFFA8FFF4
FFFFA8FFF4
FFFFA8FFF4
FFFFA8FFF4
FFFFDCFFF4
EFFF85FFF3
8FFFD8FFC0
07DFFFD910
ENDCHAR
STARTCHAR Tcaron
ENCODING 356
SWIDTH 578 0
DWIDTH 9 0
BBX 10 16 0 0
BITMAP
0003123000
00AFEFF800
00EBB9DC00
00BF77F900
006F9AF500
03AFFFF500
5FC3213B80
DFFFA8FFF2
FFFFA8FFF4
FFFFA8FFF4
FFFFA8FFF4
FFFFA8FFF4
FFFFDCFFF4
EFFFFFFFF3
8FFFFFFFC0
07DFFFD910
ENDCHAR
STARTCHAR tcaron
ENCODING 357
SWIDTH 578 0
DWIDTH 9 0
BBX 10 11 0 0
BITMAP
038ABB9500
5FC3213B80
DFFFA86CF2
FFFFA86CF4
FFFFA8DFF4
FFFFA8FFF4
FFFFA8FFF4
FFFFDCFFF4
EFFFFFFFF3
8FFFFFFFC0
07DFFFD910
ENDCHAR
STARTCHAR Tbar
ENCODING 358
SWIDTH 578 0
DWIDTH 9 0
BBX 10 11 0 0
BITMAP
038ABB9500
5FC3213B80
DFFFA8FFF2
FFFF98FFF4
FFFA32AFF4
FFFFA8FFF4
FFFFA8FFF4
FFFFDCFFF4
EFFFFFFFF3
8FFFFFFFC0
07DFFFD910
ENDCHAR
STARTCHAR tbar
ENCODING 359
SWIDTH 578 0
DWIDTH 9 0
BBX 10 11 0 0
BITMAP
038ABB9500
5FC3213B80
DFFFA8FFF2
FFFF98FFF4
FFFA32AFF4
FFFFA8FFF4
FFFFA8FFF4
FFFFDCFFF4
EFFFFFFFF3
8FFFFFFFC0
07DFFFD910
ENDCHAR
STARTCHAR Utilde
ENCODING 360
SWIDTH 578 0
DWIDTH 9 0
BBX 10 16 0 0
BITMAP
0000110000
003CFFD400
01EFFFFE20
05FEEFDF60
05F4547F60
03FFFFFF10
5F8AFF8980
DF8AFF89F2
FF8AFF89F4
FF8AFF89F4
FF8AFF89F4
FF86995AF4
FFE9889FF4
EFFFFFFFF3
8FFFFFFFC0
07DFFFD910
ENDCHAR
STARTCHAR utilde
ENCODING 361
SWIDTH 578 0
DWIDTH 9 0
BBX 10 16 0 0
BITMAP
0000110000
003CFFD400
01EFFFFF20
05FEEFDF70
04F4546F60
03FFFFFF10
5F8AFF8980
DF8AFF89F2
FF8AFF89F4
FF8AFF89F4
FF8AFF89F4
FF86995AF4
FFE9889FF4
EFFFFFFFF3
8FFFFFFFC0
07DFFFD910
ENDCHAR
STARTCHAR Umacron
ENCODING 362
SWIDTH 578 0
DWIDTH 9 0
BBX 10 15 0 0
BITMAP
0006996100
01CFFFFD10
05FB88CF60
04FCAADF50
03FFFFFF00
5F8AFF8980
DF8AFF89F2
FF8AFF89F4
FF8AFF89F4
FF8AFF89F4
FF86995AF4
FFE9889FF4
EFFFFFFFF3
8FFFFFFFC0
07DFFFD910
ENDCHAR
STARTCHAR umacron
ENCODING 363
SWIDTH 578 0
DWIDTH 9 0
BBX 10 15 0 0
BITMAP
0006996100
01CFFFFD10
05FB88CF60
04FCAADF50
03FFFFFF00
5F8AFF8980
DF8AFF89F2
FF8AFF89F4
FF8AFF89F4
FF8AFF89F4
FF86995AF4
FFE9889FF4
EFFFFFFFF3
8FFFFFFFC0
07DFFFD910
ENDCHAR
STARTCHAR Ubreve
ENCODING 364
SWIDTH 578 0
DWIDTH 9 0
BBX 10 15 0 0
BITMAP
0006996100
01CFFFFD10
05FDDEDF60
04FC33BF50
03FFFFFF00
5F8AFF8980
DF8AFF89F2
FF8AFF89F4
FF8AFF89F4
FF8AFF89F4
FF86995AF4
FFE9889FF4
EFFFFFFFF3
8FFFFFFFC0
07DFFFD910
ENDCHAR
STARTCHAR ubreve
ENCODING 365
SWIDTH 578 0
DWIDTH 9 0
BBX 10 15 0 0
BITMAP
0006996100
01CFFFFD10
05FDDECF60
04FC33BF60
03FFFFFF00
5F8AFF8980
DF8AFF89F2
FF8AFF89F4
FF8AFF89F4
FF8AFF89F4
FF86995AF4
FFE9889FF4
EFFFFFFFF3
8FFFFFFFC0
07DFFFD910
ENDCHAR
STARTCHAR Uring
ENCODING 366
SWIDTH 578 0
DWIDTH 9 0
BBX 10 15 0 0
BITMAP
0019ED8000
009E78F700
00E9A8BC00
00EC54DD00
03FFFFFC00
5F8AFF8980
DF8AFF89F2
FF8AFF89F4
FF8AFF89F4
FF8AFF89F4
FF86995AF4
FFE9889FF4
EFFFFFFFF3
8FFFFFFFC0
07DFFFD910
ENDCHAR
STARTCHAR uring
ENCODING 367
SWIDTH 578 0
DWIDTH 9 0
BBX 10 15 0 0
BITMAP
0019DD8000
009E78F700
00EAA9BD00
00EC54DD00
03FFFFFD00
5F8AFF8980
DF8AFF89F2
FF8AFF89F4
FF8AFF89F4
FF8AFF89F4
FF86995AF4
FFE9889FF4
EFFFFFFFF3
8FFFFFFFC0
07DFFFD910
ENDCHAR
STARTCHAR Uhungarumlaut
ENCODING 368
SWIDTH 581 0
DWIDTH 9 0
BBX 10 16 0 0
BITMAP
0000286820
0001EFFFA0
0008F6E6F2
002EAC8EC0
006FBFBF30
03BFFFFB00
5F8AFF8980
DF8AFF89F2
FF8AFF89F4
FF8AFF89F4
FF8AFF89F4
FF86995AF4
FFE9889FF4
EFFFFFFFF3
8FFFFFFFC0
07DFFFD910
ENDCHAR
STARTCHAR uhungarumlaut
ENCODING 369
SWIDTH 582 0
DWIDTH 9 0
BBX 10 16 0 0
BITMAP
0000276820
0001EFFFA0
0008F6E6F3
001EAC8EC0
006FBFBF30
03BFFFFB00
5F8AFF8980
DF8AFF89F2
FF8AFF89F4
FF8AFF89F4
FF8AFF89F4
FF86995AF4
FFE9889FF4
EFFFFFFFF3
8FFFFFFFC0
07DFFFD910
ENDCHAR
STARTCHAR Uogonek
ENCODING 370
SWIDTH 578 0
DWIDTH 9 0
BBX 10 11 0 0
BITMAP
038ABB9500
5F8AFF8980
DF8AFF89F2
FF8AFF89F4
FF8AFF89F4
FF8AFF89F4
FF86995AF4
FFE9739FF4
EFFF5DFFF3
8FFF85FFC0
07DFFFD910
ENDCHAR
STARTCHAR uogonek
ENCODING 371
SWIDTH 578 0
DWIDTH 9 0
BBX 10 11 0 0
BITMAP
038ABB9500
5F8AFF8980
DF8AFF89F2
FF8AFF89F4
FF8AFF89F4
FF8AFF89F4
FF86994AF4
FFE9739FF4
EFFF5DFFF3
8FFF85FFC0
07DFFFD910
ENDCHAR
STARTCHAR Wcircumflex
ENCODING 372
SWIDTH 578 0
DWIDTH 9 0
BBX 10 16 0 0
BITMAP
0004A91000
001EDE9000
007F69F100
00DC96F700
01FCEBEA00
03FFFFF900
5C6F8CF380
DD4F48E3F2
FF2F26C5F4
FF2D43B6F4
FF3A7398F4
FF54944AF4
FFD9FD9FF4
EFFFFFFFF3
8FFFFFFFC0
07DFFFD910
ENDCHAR
STARTCHAR wcircumflex
ENCODING 373
SWIDTH 578 0
DWIDTH 9 0
BBX 10 16 0 0
BITMAP
0004A91000
001EDE9000
007F69F100
00DC96F700
01FCEBEA00
03FFFFF900
5C6F8CF380
DD4F48E3F2
FF2F26C5F4
FF2D43B6F4
FF3A7398F4
FF54944AF4
FFD9FD9FF4
EFFFFFFFF3
8FFFFFFFC0
07DFFFD910
ENDCHAR
STARTCHAR Ycircumflex
ENCODING 374
SWIDTH 578 0
DWIDTH 9 0
BBX 10 16 0 0
BITMAP
0002AA2000
000DEEC000
005F78F300
00AE77F900
00DDDCDC00
03FFFFFA00
5FC3FF3D80
DFF4CC4FF2
FFFA66AFF4
FFFF23FFF4
FFFF78FFF4
FFFF89FFF4
FFFFCCFFF4
EFFFFFFFF3
8FFFFFFFC0
07DFFFD910
ENDCHAR
STARTCHAR ycircumflex
ENCODING 375
SWIDTH 578 0
DWIDTH 9 0
BBX 10 16 0 0
BITMAP
0002AA2000
000DEEC000
005F78F300
00AE77F900
00DDDCDC00
03FFFFFA00
5FC3FF3D80
DFF4CC4FF2
FFFA66AFF4
FFFF23FFF4
FFFF78FFF4
FFFF89FFF4
FFFFCCFFF4
EFFFFFFFF3
8FFFFFFFC0
07DFFFD910
ENDCHAR
STARTCHAR Ydieresis
ENCODING 376
SWIDTH 578 0
DWIDTH 9 0
BBX 10 15 0 0
BITMAP
0004884000
009FFFF900
01F9BABF10
01ECDCCE00
03CFFFF900
5FC3FF3D80
DFF4CC4FF2
FFFA66AFF4
FFFF23FFF4
FFFF78FFF4
FFFF89FFF4
FFFFCCFFF4
EFFFFFFFF3
8FFFFFFFC0
07DFFFD910
ENDCHAR
STARTCHAR Zacute
ENCODING 377
SWIDTH 578 0
DWIDTH 9 0
BBX 10 16 0 0
BITMAP
0000451000
000AFFE300
001FA8F600
005F6EE100
008FAF6000
03AFFF9500
5FF4326F80
DFFFF5BFF2
FFFFC4FFF4
FFFF4CFFF4
FFFA6FFFF4
FFF28AAFF4
FFF9889FF4
EFFFFFFFF3
8FFFFFFFC0
07DFFFD910
ENDCHAR
STARTCHAR zacute
ENCODING 378
SWIDTH 578 0
DWIDTH 9 0
BBX 10 16 0 0
BITMAP
0000451000
000AFFE300
001FA8F600
005F6EE100
008FAF6000
03AFFF9500
5FF4326F80
DFFFF5BFF2
FFFFC4FFF4
FFFF4CFFF4
FFFA6FFFF4
FFF28AAFF4
FFF9889FF4
EFFFFFFFF3
8FFFFFFFC0
07DFFFD910
ENDCHAR
STARTCHAR Zdotaccent
ENCODING 379
SWIDTH 578 0
DWIDTH 9 0
BBX 10 15 0 0
BITMAP
0028A84000
04FFFFF800
0BFF8EFF00
0BFF8EFF00
08FFFFFD00
5FF4326F80
DFFFF5BFF2
FFFFC4FFF4
FFFF4CFFF4
FFFA6FFFF4
FFF28AAFF4
FFF9889FF4
EFFFFFFFF3
8FFFFFFFC0
07DFFFD910
ENDCHAR
STARTCHAR zdotaccent
ENCODING 380
SWIDTH 578 0
DWIDTH 9 0
BBX 10 15 0 0
BITMAP
0028A84000
04FFFFF800
0BFF8EFF00
0BFF8EFF00
08FFFFFD00
5FF4326F80
DFFFF5BFF2
FFFFC4FFF4
FFFF4CFFF4
FFFA6FFFF4
FFF28AAFF4
FFF9889FF4
EFFFFFFFF3
8FFFFFFFC0
07DFFFD910
ENDCHAR
STARTCHAR Zcaron
ENCODING 381
SWIDTH 578 0
DWIDTH 9 0
BBX 10 16 0 0
BITMAP
0003122000
00DFEFF600
01F9D7F900
00DD87F600
009F7CF200
03BFFFF500
5FF4326F80
DFFFF5BFF2
FFFFC4FFF4
FFFF4CFFF4
FFFA6FFFF4
FFF28AAFF4
FFF9889FF4
EFFFFFFFF3
8FFFFFFFC0
07DFFFD910
ENDCHAR
STARTCHAR zcaron
ENCODING 382
SWIDTH 578 0
DWIDTH 9 0
BBX 10 16 0 0
BITMAP
0003122000
00DFEFF600
01F9D7F900
00DD87F600
009F7CF200
03BFFFF500
5FF4326F80
DFFFF5BFF2
FFFFC4FFF4
FFFF4CFFF4
FFFA6FFFF4
FFF28AAFF4
FFF9889FF4
EFFFFFFFF3
8FFFFFFFC0
07DFFFD910
ENDCHAR
STARTCHAR longs
ENCODING 383
SWIDTH 578 0
DWIDTH 9 0
BBX 10 11 0 0
BITMAP
038ABB9500
5FFC78EF80
DFC6ED5FF2
FF7EEFABF4
FF7E8D9CF4
FFD68B6FF4
FFFF9DFFF4
FFFFFFFFF4
EFFFFFFFF3
8FFFFFFFC0
07DFFFD910
ENDCHAR
STARTCHAR florin
ENCODING 402
SWIDTH 578 0
DWIDTH 9 0
BBX 10 11 0 0
BITMAP
038ABB9500
5FFF53CF80
DFFE4FFFF2
FFFC3DFFF4
FFF829FFF4
FFFE4FFFF4
FFFE4FFFF4
FFFE4FFFF4
EFC38FFFF3
8FFFFFFFC0
07DFFFD910
ENDCHAR
STARTCHAR uni01CD
ENCODING 461
SWIDTH 578 0
DWIDTH 9 0
BBX 10 16 0 0
BITMAP
0003123000
00BFEFF800
00EBB9DB00
00BF77F900
007F9AF400
03AFFFF500
5FF4236F80
DFD5FF2FF2
FFB6FF3FF4
FFA2551DF4
FF88EE5CF4
FF6AFF7AF4
FFADFFCCF4
EFFFFFFFF3
8FFFFFFFC0
07DFFFD910
ENDCHAR
STARTCHAR uni01CE
ENCODING 462
SWIDTH 578 0
DWIDTH 9 0
BBX 10 16 0 0
BITMAP
0002213000
008FFEFA00
00CD9BCE00
009F77FB00
005FA9F700
039FFFF600
5FE2336F80
DFFFFF3FF2
FFFFFF4FF4
FF92223FF4
FF5DFF4FF4
FF67993FF4
FFE989AFF4
EFFFFFFFF3
8FFFFFFFC0
07DFFFD910
ENDCHAR
STARTCHAR uni01CF
ENCODING 463
SWIDTH 578 0
DWIDTH 9 0
BBX 10 16 0 0
BITMAP
0002213000
007FFEFB00
00BE8CBF00
008F77EC00
003FB8F800
038FFFF700
5FC3213B80
DFFFA8FFF2
FFFFA8FFF4
FFFFA8FFF4
FFFFA8FFF4
FFE9659DF4
FFE8888DF4
EFFFFFFFF3
8FFFFFFFC0
07DFFFD910
ENDCHAR
STARTCHAR uni01D0
ENCODING 464
SWIDTH 578 0
DWIDTH 9 0
BBX 10 16 0 0
BITMAP
0002213000
008FFEFB00
00BD9BBE00
009F77FB00
004FA9F700
039FFFF700
5FC3213B80
DFFFA8FFF2
FFFFA8FFF4
FFFFA8FFF4
FFFFA8FFF4
FFE9659DF4
FFE8888DF4
EFFFFFFFF3
8FFFFFFFC0
07DFFFD910
ENDCHAR
STARTCHAR uni01D1
ENCODING 465
SWIDTH 578 0
DWIDTH 9 0
BBX 10 16 0 0
BITMAP
0002213000
009FFEF900
00DDAACD00
00AF77FA00
005FAAF600
039FFFF600
5FC2332C80
DF89FF99F2
FF8AFF98F4
FF8AFF98F4
FF8AFF98F4
FF959959F4
FFF9889FF4
EFFFFFFFF3
8FFFFFFFC0
07DFFFD910
ENDCHAR
STARTCHAR uni01D3
ENCODING 467
SWIDTH 578 0
DWIDTH 9 0
BBX 10 16 0 0
BITMAP
0002213000
008FFEFA00
00CD9BBE00
009F77FB00
004FA9F700
039FFFF600
5F8AFF8980
DF8AFF89F2
FF8AFF89F4
FF8AFF89F4
FF8AFF89F4
FF86995AF4
FFE9889FF4
EFFFFFFFF3
8FFFFFFFC0
07DFFFD910
ENDCHAR
STARTCHAR uni01D4
ENCODING 468
SWIDTH 578 0
DWIDTH 9 0
BBX 10 16 0 0
BITMAP
0002213000
008FFEFB00
00BD9BBE00
009F77FB00
004FA9F700
039FFFF700
5F8AFF8980
DF8AFF89F2
FF8AFF89F4
FF8AFF89F4
FF8AFF89F4
FF86995AF4
FFE9889FF4
EFFFFFFFF3
8FFFFFFFC0
07DFFFD910
ENDCHAR
STARTCHAR uni0200
ENCODING 512
SWIDTH 578 0
DWIDTH 9 0
BBX 10 16 0 0
BITMAP
0286820000
0AFFFE1000
2F6E6F8000
0CE8CAE200
03FBFBF600
03EFFFF700
5FF4236F80
DFD5FF2FF2
FFB6FF3FF4
FFA2551DF4
FF88EE5CF4
FF6AFF7AF4
FFADFFCCF4
EFFFFFFFF3
8FFFFFFFC0
07DFFFD910
ENDCHAR
STARTCHAR uni0201
ENCODING 513
SWIDTH 578 0
DWIDTH 9 0
BBX 10 16 0 0
BITMAP
0286820000
0AFFFE1000
2F6E6F8000
0CE8CAE200
03FBFBF600
03EFFFF700
5FE2336F80
DFFFFF3FF2
FFFFFF4FF4
FF92223FF4
FF5DFF4FF4
FF67993FF4
FFE989AFF4
EFFFFFFFF3
8FFFFFFFC0
07DFFFD910
ENDCHAR
STARTCHAR uni0202
ENCODING 514
SWIDTH 578 0
DWIDTH 9 0
BBX 10 15 0 0
BITMAP
0029CB8100
03EFFFFD10
08FD56EF40
06FADBCF20
03FFFFFB00
5FF4236F80
DFD5FF2FF2
FFB6FF3FF4
FFA2551DF4
FF88EE5CF4
FF6AFF7AF4
FFADFFCCF4
EFFFFFFFF3
8FFFFFFFC0
07DFFFD910
ENDCHAR
STARTCHAR uni0203
ENCODING 515
SWIDTH 578 0
DWIDTH 9 0
BBX 10 15 0 0
BITMAP
0029CB8100
03EFFFFD10
08FD56EF40
06FADBCF20
03FFFFFB00
5FE2336F80
DFFFFF3FF2
FFFFFF4FF4
FF92223FF4
FF5DFF4FF4
FF67993FF4
FFE989AFF4
EFFFFFFFF3
8FFFFFFFC0
07DFFFD910
ENDCHAR
STARTCHAR uni0204
ENCODING 516
SWIDTH 578 0
DWIDTH 9 0
BBX 10 16 0 0
BITMAP
0286820000
0AFFFE1000
2F6E6F8000
0CE8CAE200
03FBFBF600
03EFFFF700
5FF2333F80
DFF3FFFFF2
FFF3CCEFF4
FFF255AFF4
FFF3FFFFF4
FFF3999FF4
FFF9888EF4
EFFFFFFFF3
8FFFFFFFC0
07DFFFD910
ENDCHAR
STARTCHAR uni0205
ENCODING 517
SWIDTH 578 0
DWIDTH 9 0
BBX 10 16 0 0
BITMAP
0286820000
0AFFFE1000
2F6E6F8000
0CE8CAE200
03FBFBF600
03EFFFF700
5FA2337F80
DF6CFF2FF2
FF65662FF4
FF69CCCFF4
FF6CFFFFF4
FF84669FF4
FFFCCCEFF4
EFFFFFFFF3
8FFFFFFFC0
07DFFFD910
ENDCHAR
STARTCHAR uni0206
ENCODING 518
SWIDTH 578 0
DWIDTH 9 0
BBX 10 15 0 0
BITMAP
0029CB8100
03EFFFFD10
08FD56EF40
06FADBCF20
03FFFFFB00
5FF2333F80
DFF3FFFFF2
FFF3CCEFF4
FFF255AFF4
FFF3FFFFF4
FFF3999FF4
FFF9888EF4
EFFFFFFFF3
8FFFFFFFC0
07DFFFD910
ENDCHAR
STARTCHAR uni0207
ENCODING 519
SWIDTH 578 0
DWIDTH 9 0
BBX 10 15 0 0
BITMAP
0029CB8100
03EFFFFD10
08FD56EF40
06FADBCF20
03FFFFFB00
5FA2337F80
DF6CFF2FF2
FF65662FF4
FF69CCCFF4
FF6CFFFFF4
FF84669FF4
FFFCCCEFF4
EFFFFFFFF3
8FFFFFFFC0
07DFFFD910
ENDCHAR
STARTCHAR uni0208
ENCODING 520
SWIDTH 578 0
DWIDTH 9 0
BBX 10 16 0 0
BITMAP
0286820000
0AFFFE1000
2F6E6F8000
0CE8CAE200
03FBFBF600
03EFFFF700
5FC3213B80
DFFFA8FFF2
FFFFA8FFF4
FFFFA8FFF4
FFFFA8FFF4
FFE9659DF4
FFE8888DF4
EFFFFFFFF3
8FFFFFFFC0
07DFFFD910
ENDCHAR
STARTCHAR uni0209
ENCODING 521
SWIDTH 578 0
DWIDTH 9 0
BBX 10 16 0 0
BITMAP
0286820000
0AFFFE1000
2F6E6F8000
0CE8CAE200
03FBFBF600
03EFFFF700
5FC3213B80
DFFFA8FFF2
FFFFA8FFF4
FFFFA8FFF4
FFFFA8FFF4
FFE9659DF4
FFE8888DF4
EFFFFFFFF3
8FFFFFFFC0
07DFFFD910
ENDCHAR
STARTCHAR uni020A
ENCODING 522
SWIDTH 578 0
DWIDTH 9 0
BBX 10 15 0 0
BITMAP
0029CB8100
03EFFFFD10
08FD56EF40
06FADBCF20
03FFFFFB00
5FC3213B80
DFFFA8FFF2
FFFFA8FFF4
FFFFA8FFF4
FFFFA8FFF4
FFE9659DF4
FFE8888DF4
EFFFFFFFF3
8FFFFFFFC0
07DFFFD910
ENDCHAR
STARTCHAR uni020B
ENCODING 523
SWIDTH 578 0
DWIDTH 9 0
BBX 10 15 0 0
BITMAP
0029CB8100
03EFFFFD10
08FD56EF40
06FADBCF20
03FFFFFB00
5FC3213B80
DFFFA8FFF2
FFFFA8FFF4
FFFFA8FFF4
FFFFA8FFF4
FFE9659DF4
FFE8888DF4
EFFFFFFFF3
8FFFFFFFC0
07DFFFD910
ENDCHAR
STARTCHAR uni020C
ENCODING 524
SWIDTH 578 0
DWIDTH 9 0
BBX 10 16 0 0
BITMAP
0286820000
0AFFFE1000
2F6E6F8000
0CE8CAE200
03FBFBF600
03EFFFF700
5FC2332C80
DF89FF99F2
FF8AFF98F4
FF8AFF98F4
FF8AFF98F4
FF959959F4
FFF9889FF4
EFFFFFFFF3
8FFFFFFFC0
07DFFFD910
ENDCHAR
STARTCHAR uni020D
ENCODING 525
SWIDTH 578 0
DWIDTH 9 0
BBX 10 16 0 0
BITMAP
0286820000
0AFFFE1000
2F6E6F8000
0CE8CAE200
03FBFBF600
03EFFFF700
5FC2332C80
DF89FF99F2
FF8AFF98F4
FF8AFF98F4
FF8AFF98F4
FF959959F4
FFF9889FF4
EFFFFFFFF3
8FFFFFFFC0
07DFFFD910
ENDCHAR
STARTCHAR uni020E
ENCODING 526
SWIDTH 578 0
DWIDTH 9 0
BBX 10 15 0 0
BITMAP
0029CB8100
03EFFFFD10
08FD56EF40
06FADBCF20
03FFFFFB00
5FC2332C80
DF89FF99F2
FF8AFF98F4
FF8AFF98F4
FF8AFF98F4
FF959959F4
FFF9889FF4
EFFFFFFFF3
8FFFFFFFC0
07DFFFD910
ENDCHAR
STARTCHAR uni020F
ENCODING 527
SWIDTH 578 0
DWIDTH 9 0
BBX 10 15 0 0
BITMAP
0029CB8100
03EFFFFD10
08FD56EF40
06FADBCF20
03FFFFFB00
5FC2332C80
DF89FF99F2
FF8AFF98F4
FF8AFF98F4
FF8AFF98F4
FF959959F4
FFF9889FF4
EFFFFFFFF3
8FFFFFFFC0
07DFFFD910
ENDCHAR
STARTCHAR uni0210
ENCODING 528
SWIDTH 578 0
DWIDTH 9 0
BBX 10 16 0 0
BITMAP
0286820000
0AFFFE1000
2F6E6F8000
0CE8CAE200
03FBFBF600
03EFFFF700
5FA1325F80
DFA7FF2FF2
FFA7FE3FF4
FFA1228FF4
FFA7FF3EF4
FFA7FF4EF4
FFDBFFAFF4
EFFFFFFFF3
8FFFFFFFC0
07DFFFD910
ENDCHAR
STARTCHAR uni0211
ENCODING 529
SWIDTH 578 0
DWIDTH 9 0
BBX 10 16 0 0
BITMAP
0286820000
0AFFFE1000
2F6E6F8000
0CE8CAE200
03FBFBF600
03EFFFF700
5FA1325F80
DFA7FF2FF2
FFA7FE3FF4
FFA1228FF4
FFA7FF3EF4
FFA7FF4EF4
FFDBFFAFF4
EFFFFFFFF3
8FFFFFFFC0
07DFFFD910
ENDCHAR
STARTCHAR uni0212
ENCODING 530
SWIDTH 578 0
DWIDTH 9 0
BBX 10 15 0 0
BITMAP
0029CB8100
03EFFFFD10
08FD56EF40
06FADBCF20
03FFFFFB00
5FA1325F80
DFA7FF2FF2
FFA7FE3FF4
FFA1228FF4
FFA7FF3EF4
FFA7FF4EF4
FFDBFFAFF4
EFFFFFFFF3
8FFFFFFFC0
07DFFFD910
ENDCHAR
STARTCHAR uni0213
ENCODING 531
SWIDTH 578 0
DWIDTH 9 0
BBX 10 15 0 0
BITMAP
0029CB8100
03EFFFFD10
08FD56EF40
06FADBCF20
03FFFFFB00
5FA1325F80
DFA7FF2FF2
FFA7FE3FF4
FFA1228FF4
FFA7FF3EF4
FFA7FF4EF4
FFDBFFAFF4
EFFFFFFFF3
8FFFFFFFC0
07DFFFD910
ENDCHAR
STARTCHAR uni0214
ENCODING 532
SWIDTH 578 0
DWIDTH 9 0
BBX 10 16 0 0
BITMAP
0286820000
0AFFFE1000
2F6E6F8000
0CE8CAE200
03FBFBF600
03EFFFF700
5F8AFF8980
DF8AFF89F2
FF8AFF89F4
FF8AFF89F4
FF8AFF89F4
FF86995AF4
FFE9889FF4
EFFFFFFFF3
8FFFFFFFC0
07DFFFD910
ENDCHAR
STARTCHAR uni0215
ENCODING 533
SWIDTH 578 0
DWIDTH 9 0
BBX 10 16 0 0
BITMAP
0286820000
0AFFFE1000
2F6E6F8000
0CE8CAE200
03FBFBF600
03EFFFF700
5F8AFF8980
DF8AFF89F2
FF8AFF89F4
FF8AFF89F4
FF8AFF89F4
FF86995AF4
FFE9889FF4
EFFFFFFFF3
8FFFFFFFC0
07DFFFD910
ENDCHAR
STARTCHAR uni0216
ENCODING 534
SWIDTH 578 0
DWIDTH 9 0
BBX 10 15 0 0
BITMAP
0029CB8100
03EFFFFD10
08FD56EF40
06FADBCF20
03FFFFFB00
5F8AFF8980
DF8AFF89F2
FF8AFF89F4
FF8AFF89F4
FF8AFF89F4
FF86995AF4
FFE9889FF4
EFFFFFFFF3
8FFFFFFFC0
07DFFFD910
ENDCHAR
STARTCHAR uni0217
ENCODING 535
SWIDTH 578 0
DWIDTH 9 0
BBX 10 15 0 0
BITMAP
0029CB8100
03EFFFFD10
08FD56EF40
06FADBCF20
03FFFFFB00
5F8AFF8980
DF8AFF89F2
FF8AFF89F4
FF8AFF89F4
FF8AFF89F4
FF86995AF4
FFE9889FF4
EFFFFFFFF3
8FFFFFFFC0
07DFFFD910
ENDCHAR
STARTCHAR uni0218
ENCODING 536
SWIDTH 578 0
DWIDTH 9 0
BBX 10 11 0 0
BITMAP
038ABB9500
5FE3333F80
DFB7FFFFF2
FFB4BCDFF4
FFF8662CF4
FFFFFF7BF4
FFF9994BF4
FFF988AFF4
EFFF66FFF3
8FFFCAFFC0
07DFFFD910
ENDCHAR
STARTCHAR uni0219
ENCODING 537
SWIDTH 578 0
DWIDTH 9 0
BBX 10 11 0 0
BITMAP
038ABB9500
5FE3333F80
DFB7FFFFF2
FFB4BCDFF4
FFF8662CF4
FFFFFF7BF4
FFF9994BF4
FFF988AFF4
EFFF66FFF3
8FFFCAFFC0
07DFFFD910
ENDCHAR
STARTCHAR uni021A
ENCODING 538
SWIDTH 578 0
DWIDTH 9 0
BBX 10 11 0 0
BITMAP
038ABB9500
5FC3213B80
DFFFA8FFF2
FFFFA8FFF4
FFFFA8FFF4
FFFFA8FFF4
FFFFA8FFF4
FFFFDCFFF4
EFFF85FFF3
8FFFD8FFC0
07DFFFD910
ENDCHAR
STARTCHAR uni021B
ENCODING 539
SWIDTH 578 0
DWIDTH 9 0
BBX 10 11 0 0
BITMAP
038ABB9500
5FC3213B80
DFFFA8FFF2
FFFFA8FFF4
FFFFA8FFF4
FFFFA8FFF4
FFFFA8FFF4
FFFFDCFFF4
EFFF85FFF3
8FFFD8FFC0
07DFFFD910
ENDCHAR
STARTCHAR circumflex
ENCODING 710
SWIDTH 355 0
DWIDTH 6 0
BBX 6 6 0 0
BITMAP
03A910
1EEEA0
6F68F2
CD96F7
FCECEA
8AAAA4
ENDCHAR
STARTCHAR caron
ENCODING 711
SWIDTH 355 0
DWIDTH 6 0
BBX 6 6 0 0
BITMAP
031230
BFEFF7
FAC8EA
CE77F8
8F8BF4
2AAAA0
ENDCHAR
STARTCHAR breve
ENCODING 728
SWIDTH 428 0
DWIDTH 7 0
BBX 7 5 0 0
BITMAP
038A8200
7FFFFF50
EFBFBFC0
EF546FB0
5EFFFE30
ENDCHAR
STARTCHAR dotaccent
ENCODING 729
SWIDTH 428 0
DWIDTH 7 0
BBX 7 5 0 0
BITMAP
038A8200
7FFFFF50
EFE8FFC0
EFE8FFC0
7DDDDD50
ENDCHAR
STARTCHAR ring
ENCODING 730
SWIDTH 368 0
DWIDTH 6 0
BBX 6 5 0 0
BITMAP
19ED80
9E78F7
E9A8BC
EC54DD
9FFFF8
ENDCHAR
STARTCHAR ogonek
ENCODING 731
SWIDTH 101 0
DWIDTH 2 0
BBX 2 3 0 -3
BITMAP
93
C3
44
ENDCHAR
STARTCHAR tilde
ENCODING 732
SWIDTH 428 0
DWIDTH 7 0
BBX 7 6 0 0
BITMAP
00020000
19FFE800
AFFFFF70
EFEFDFC0
EA442FC0
6FFFFF40
ENDCHAR
STARTCHAR hungarumlaut
ENCODING 733
SWIDTH 419 0
DWIDTH 7 0
BBX 7 6 0 0
BITMAP
00677500
08FFFF20
2F9B7D90
AF7D9F40
FCEBF900
9AAAA100
ENDCHAR
STARTCHAR uni030F
ENCODING 783
SWIDTH 419 0
DWIDTH 7 0
BBX 7 6 0 0
BITMAP
07684000
5FFFF400
DAB7DC00
8F7E8F50
0CDDCEB0
03AAAA60
ENDCHAR
STARTCHAR mu
ENCODING 956
SWIDTH 578 0
DWIDTH 9 0
BBX 10 11 0 0
BITMAP
038ABB9500
5F8AFF8980
DF8AFF89F2
FF8AFF89F4
FF8AFF89F4
FF8AFF89F4
FF86995AF4
FF86889FF4
EFFFFFFFF3
8FFFFFFFC0
07DFFFD910
ENDCHAR
STARTCHAR pi
ENCODING 960
SWIDTH 578 0
DWIDTH 9 0
BBX 10 11 0 0
BITMAP
038AAB9500
5FC6767E80
DD7965C6F2
F6F6FABBB4
F7F475AE84
F6F6FD8C94
FAA9FEA6E4
FF88BA6CF4
EFFDABEFF3
8FFFFFFFC0
07DFFFD910
ENDCHAR
STARTCHAR uni1E60
ENCODING 7776
SWIDTH 578 0
DWIDTH 9 0
BBX 10 15 0 0
BITMAP
0005997100
00BFFFFD20
04FFCBFF70
04FFCAFF70
03FFFFFF20
5FE3333F80
DFB7FFFFF2
FFB4BCDFF4
FFF8662CF4
FFFFFF7BF4
FFF9994BF4
FFF988AFF4
EFFFFFFFF3
8FFFFFFFC0
07DFFFD910
ENDCHAR
STARTCHAR uni1E8E
ENCODING 7822
SWIDTH 578 0
DWIDTH 9 0
BBX 10 15 0 0
BITMAP
0016996100
01DFFFFD10
06FFBBFF60
05FFBBFF50
04FFFFFF10
5FC3FF3D80
DFF4CC4FF2
FFFA66AFF4
FFFF23FFF4
FFFF78FFF4
FFFF89FFF4
FFFFCCFFF4
EFFFFFFFF3
8FFFFFFFC0
07DFFFD910
ENDCHAR
STARTCHAR uni1E8F
ENCODING 7823
SWIDTH 578 0
DWIDTH 9 0
BBX 10 15 0 0
BITMAP
0016996100
01DFFFFD10
06FFBBFF60
05FFBBFF50
04FFFFFF10
5FC3FF3D80
DFF4CC4FF2
FFFA66AFF4
FFFF23FFF4
FFFF78FFF4
FFFF89FFF4
FFFFCCFFF4
EFFFFFFFF3
8FFFFFFFC0
07DFFFD910
ENDCHAR
STARTCHAR uni1EBC
ENCODING 7868
SWIDTH 578 0
DWIDTH 9 0
BBX 10 16 0 0
BITMAP
0000110000
003CFFD400
01EFFFFE20
05FEEFDF60
05F4547F60
03FFFFFF10
5FF2333F80
DFF3FFFFF2
FFF3CCEFF4
FFF255AFF4
FFF3FFFFF4
FFF3999FF4
FFF9888EF4
EFFFFFFFF3
8FFFFFFFC0
07DFFFD910
ENDCHAR
STARTCHAR uni1EF8
ENCODING 7928
SWIDTH 578 0
DWIDTH 9 0
BBX 10 16 0 0
BITMAP
0000110000
004DFFD400
02EFFFFE20
06FEEFDF60
05F4547F50
03FFFFFF00
5FC3FF3D80
DFF4CC4FF2
FFFA66AFF4
FFFF23FFF4
FFFF78FFF4
FFFF89FFF4
FFFFCCFFF4
EFFFFFFFF3
8FFFFFFFC0
07DFFFD910
ENDCHAR
STARTCHAR uni1EF9
ENCODING 7929
SWIDTH 578 0
DWIDTH 9 0
BBX 10 16 0 0
BITMAP
0000110000
004DFFD400
02EFFFFE20
06FEEFDF60
05F4547F50
03FFFFFF00
5FC3FF3D80
DFF4CC4FF2
FFFA66AFF4
FFFF23FFF4
FFFF78FFF4
FFFF89FFF4
FFFFCCFFF4
EFFFFFFFF3
8FFFFFFFC0
07DFFFD910
ENDCHAR
STARTCHAR endash
ENCODING 8211
SWIDTH 428 0
DWIDTH 7 0
BBX 7 11 0 0
BITMAP
038A8200
5FFFFF30
DFFFFFB0
FE334FD0
FFFFFFD0
FFFFFFD0
FFFFFFD0
FFFFFFD0
EFFFFFC0
8FFFFF60
07DEC600
ENDCHAR
STARTCHAR emdash
ENCODING 8212
SWIDTH 428 0
DWIDTH 7 0
BBX 7 11 0 0
BITMAP
038A8200
5FFFFE30
DFFFFFB0
33333320
FFFFFFD0
FFFFFFD0
FFFFFFD0
FFFFFFD0
EFFFFFC0
8FFFFF60
07DEC600
ENDCHAR
STARTCHAR quoteleft
ENCODING 8216
SWIDTH 428 0
DWIDTH 7 0
BBX 7 11 0 0
BITMAP
038A8200
5FF6FF30
DFE0EFB0
FFFFFFD0
FFFFFFD0
FFFFFFD0
FFFFFFD0
FFFFFFD0
EFFFFFC0
8FFFFF60
07DEC600
ENDCHAR
STARTCHAR quoteright
ENCODING 8217
SWIDTH 428 0
DWIDTH 7 0
BBX 7 11 0 0
BITMAP
038A8200
5FE0EF30
DFF7FFB0
FFFFFFD0
FFFFFFD0
FFFFFFD0
FFFFFFD0
FFFFFFD0
EFFFFFC0
8FFFFF60
07DEC600
ENDCHAR
STARTCHAR quotesinglbase
ENCODING 8218
SWIDTH 428 0
DWIDTH 7 0
BBX 7 11 0 0
BITMAP
038A8200
5FFFFF30
DFFFFFB0
FFFFFFD0
FFFFFFD0
FFFFFFD0
FFE7EFD0
FFE3EFD0
EFFCFFC0
8FFFFF60
07DEC600
ENDCHAR
STARTCHAR quotedblleft
ENCODING 8220
SWIDTH 428 0
DWIDTH 7 0
BBX 7 11 0 0
BITMAP
038A8200
5F7C9F30
DF244FB0
FFFFFFD0
FFFFFFD0
FFFFFFD0
FFFFFFD0
FFFFFFD0
EFFFFFC0
8FFFFF60
07DEC600
ENDCHAR
STARTCHAR quotedblright
ENCODING 8221
SWIDTH 428 0
DWIDTH 7 0
BBX 7 11 0 0
BITMAP
038A8200
5F441F30
DFAB7FB0
FFFFFFD0
FFFFFFD0
FFFFFFD0
FFFFFFD0
FFFFFFD0
EFFFFFC0
8FFFFF60
07DEC600
ENDCHAR
STARTCHAR quotedblbase
ENCODING 8222
SWIDTH 428 0
DWIDTH 7 0
BBX 7 11 0 0
BITMAP
038A8200
5FFFFF30
DFFFFFB0
FFFFFFD0
FFFFFFD0
FFFFFFD0
FF997FD0
FF873FD0
EFCECFC0
8FFFFF60
07DEC600
ENDCHAR
STARTCHAR dagger
ENCODING 8224
SWIDTH 578 0
DWIDTH 9 0
BBX 10 11 0 0
BITMAP
038ABB9500
5FFFA8FF80
DFFB329FF2
FFFE97EFF4
FFFFA8FFF4
FFFFA8FFF4
FFFFA8FFF4
FFFFDCFFF4
EFFFFFFFF3
8FFFFFFFC0
07DFFFD910
ENDCHAR
STARTCHAR daggerdbl
ENCODING 8225
SWIDTH 578 0
DWIDTH 9 0
BBX 10 11 0 0
BITMAP
038ABB9500
5FFFA8FF80
DFFB329FF2
FFFE97EFF4
FFFFA8FFF4
FFFC54BFF4
FFFD65CFF4
FFFFDCFFF4
EFFFFFFFF3
8FFFFFFFC0
07DFFFD910
ENDCHAR
STARTCHAR bullet
ENCODING 8226
SWIDTH 578 0
DWIDTH 9 0
BBX 10 11 0 0
BITMAP
038ABB9500
5FFDBBEF80
DFC0001EF2
FF80000BF4
FF80000BF4
FF80000BF4
FFD1002EF4
FFFFDDFFF4
EFFFFFFFF3
8FFFFFFFC0
07DFFFD910
ENDCHAR
STARTCHAR ellipsis
ENCODING 8230
SWIDTH 578 0
DWIDTH 9 0
BBX 10 11 0 0
BITMAP
038ABB9500
5FFFFFFF80
DFFFFFFFF2
FFFFFFFFF4
FFFFFFFFF4
FFFFFFFFF4
FF7E7E7FF4
FF9E8E8FF4
EFFFFFFFF3
8FFFFFFFC0
07DFFFD910
ENDCHAR
STARTCHAR perthousand
ENCODING 8240
SWIDTH 640 0
DWIDTH 10 0
BBX 11 11 0 0
BITMAP
038ABBB95000
478F8FFFF800
76495FFFFF20
C2379FFFFF40
FFF4C8CD8C40
FFE358258240
FFA874374340
FFFFFDFFDF40
EFFFFFFFFF30
8FFFFFFFFC00
07DFFFFD9100
ENDCHAR
STARTCHAR guilsinglleft
ENCODING 8249
SWIDTH 578 0
DWIDTH 9 0
BBX 10 11 0 0
BITMAP
038ABB9500
5FFFFDFF80
DFFFE4EFF2
FFFF6BFFF4
FFFA7FFFF4
FFFE4FFFF4
FFFFB7FFF4
FFFFF8EFF4
EFFFFFFFF3
8FFFFFFFC0
07DFFFD910
ENDCHAR
STARTCHAR guilsinglright
ENCODING 8250
SWIDTH 578 0
DWIDTH 9 0
BBX 10 11 0 0
BITMAP
038ABB9500
5FFEEFFF80
DFFD5FFFF2
FFFF99FFF4
FFFFF4DFF4
FFFFE4FFF4
FFFF5DFFF4
FFFC9FFFF4
EFFFFFFFF3
8FFFFFFFC0
07DFFFD910
ENDCHAR
STARTCHAR fraction
ENCODING 8260
SWIDTH 428 0
DWIDTH 7 0
BBX 7 11 0 0
BITMAP
038A8200
5FF7AF30
DFF4DFB0
FFF2FFD0
FFE3FFD0
FFC5FFD0
FF98FFD0
FFCDFFD0
EFFFFFC0
8FFFFF60
07DEC600
ENDCHAR
STARTCHAR Euro
ENCODING 8364
SWIDTH 578 0
DWIDTH 9 0
BBX 10 11 0 0
BITMAP
038ABB9500
5FA2338F80
DF7BFFFFF2
FA234DFFF4
FC368EFFF4
FD58BEFFF4
FF7699BFF4
FFE988CFF4
EFFFFFFFF3
8FFFFFFFC0
07DFFFD910
ENDCHAR
STARTCHAR trademark
ENCODING 8482
SWIDTH 578 0
DWIDTH 9 0
BBX 10 11 0 0
BITMAP
038ABB9500
5FFFFFFF80
DFFFFFFFF2
FFA9BFBFF4
FFB7554FF4
FFDA747FF4
FFFFFFFFF4
FFFFFFFFF4
EFFFFFFFF3
8FFFFFFFC0
07DFFFD910
ENDCHAR
STARTCHAR product
ENCODING 8719
SWIDTH 578 0
DWIDTH 9 0
BBX 10 11 0 0
BITMAP
038AAB9500
5FC6767E80
DD7C88B6F2
F6F9CE6BB4
F7F9AC6E84
F6F989DC94
FAA9DFF6E4
FF87BA6CF4
EFFDABEFF3
8FFFFFFFC0
07DFFFD910
ENDCHAR
STARTCHAR minus
ENCODING 8722
SWIDTH 428 0
DWIDTH 7 0
BBX 7 11 0 0
BITMAP
038A8200
5FFFFF30
DFFFFFB0
FE334FD0
FFFFFFD0
FFFFFFD0
FFFFFFD0
FFFFFFD0
EFFFFFC0
8FFFFF60
07DEC600
ENDCHAR
STARTCHAR notequal
ENCODING 8800
SWIDTH 578 0
DWIDTH 9 0
BBX 10 11 0 0
BITMAP
038ABB9500
5FFFFBFF80
DFC982AFF2
FFC928AFF4
FF82025FF4
FFF8BFFFF4
FFFFFFFFF4
FFFFFFFFF4
EFFFFFFFF3
8FFFFFFFC0
07DFFFD910
ENDCHAR
STARTCHAR uni2706
ENCODING 9990
SWIDTH 578 0
DWIDTH 9 0
BBX 10 11 0 0
BITMAP
038AAB9500
5FFFA8EF80
DFFEA8AFF2
FFC49AAFF4
FFB3DFFFF4
FFE1EFFFF4
FFF73ADFF4
FFFF837FF4
EFFFFFFFF3
8FFFFFFFC0
07DFFFD910
ENDCHAR
STARTCHAR uni2708
ENCODING 9992
SWIDTH 578 0
DWIDTH 9 0
BBX 10 11 0 0
BITMAP
0355555400
4303980150
5000710032
5077849314
4007FD2004
4000A30004
4000810004
4000300004
5000620023
5100D60060
0555555510
ENDCHAR
STARTCHAR uniF6D6
ENCODING 63190
SWIDTH 419 0
DWIDTH 7 0
BBX 7 6 0 0
BITMAP
07684000
5FFFF400
DAB7DC00
8F7E8F50
0CDDCEB0
03AAAA60
ENDCHAR
STARTCHAR uFFFF2
ENCODING 1048562
SWIDTH 578 0
DWIDTH 9 0
BBX 10 11 0 0
BITMAP
0355555400
4300600150
5000920032
5001C60014
401BDD6004
4062715304
4000930004
4003460004
5000620023
5100D60060
0555555510
ENDCHAR
STARTCHAR uFFFF3
ENCODING 1048563
SWIDTH 578 0
DWIDTH 9 0
BBX 10 11 0 0
BITMAP
0355555400
4300440150
50035C4032
500AAA9014
4000CB0004
4005DD4004
40075AA004
4000590004
5000100023
5100000060
0555555510
ENDCHAR
STARTCHAR uFFFF4
ENCODING 1048564
SWIDTH 578 0
DWIDTH 9 0
BBX 10 11 0 0
BITMAP
038ABB9500
5FFFDEFF80
DFFB8BCFF2
FFAA8D6EF4
FF6FAEBBF4
FF8CFF8DF4
FFE5768FF4
FFFFDEFFF4
EFFFFFFFF3
8FFFFFFFC0
07DFFFD910
ENDCHAR
STARTCHAR uFFFF5
ENCODING 1048565
SWIDTH 578 0
DWIDTH 9 0
BBX 10 11 0 0
BITMAP
038ABB9500
5FFC67FF80
DFFF8EFFF2
FF887B6CF4
FFF802DFF4
FFFF5CFFF4
FFFF7EFFF4
FFFFCFFFF4
EFFF9DFFF3
8FFF29FFC0
07DFFFD910
ENDCHAR
STARTCHAR uFFFF6
ENCODING 1048566
SWIDTH 578 0
DWIDTH 9 0
BBX 10 11 0 0
BITMAP
038ABB9500
5FFF9FFF80
DFFF6DFFF2
FFFE39FFF4
FFE4229FF4
FF9D7FACF4
FFFF5DFFF4
FFFCB9FFF4
EFFF9DFFF3
8FFF29FFC0
07DFFFD910
ENDCHAR
STARTCHAR uFFFF8
ENCODING 1048568
SWIDTH 578 0
DWIDTH 9 0
BBX 10 11 0 0
BITMAP
038ABB9500
5FFFADFF80
DFF965FFF2
FFF542CFF4
FFB9398FF4
FF74142FF4
FF90003FF4
FFF612CFF4
EFFF9DFFF3
8FFE1AFFC0
07DFFFD910
ENDCHAR
STARTCHAR uFFFF9
ENCODING 1048569
SWIDTH 578 0
DWIDTH 9 0
BBX 10 11 0 0
BITMAP
0355555400
4300210150
5004733032
5055729114
4090514404
4073007204
401A897004
4000210004
5000000023
5100000060
0555555510
ENDCHAR
STARTCHAR uFFFFB
ENCODING 1048571
SWIDTH 578 0
DWIDTH 9 0
BBX 10 11 0 0
BITMAP
038AAB9500
5FFF6CFF80
DFDA55CFF2
FFF525DFF4
FFFD09FFF4
FFE434BFF4
FFED54CFF4
FFFF7DFFF4
EFFFFFFFF3
8FFFFFFFC0
07DFFFD910
ENDCHAR
STARTCHAR uFFFFC
ENCODING 1048572
SWIDTH 578 0
DWIDTH 9 0
BBX 10 11 0 0
BITMAP
038ABB9500
5FD856AF80
DA499984E2
FD86984BF4
FFE5659FF4
FFFE7BEFF4
FFFFADFFF4
FFFFFFFFF4
EFFFFFFFF3
8FFFFFFFC0
07DFFFD910
ENDCHAR
STARTCHAR uFFFFD
ENCODING 1048573
SWIDTH 578 0
DWIDTH 9 0
BBX 10 11 0 0
BITMAP
038ABB9500
5FFD89FF80
DFD0006FF2
FF80001FF4
FF8B3A6FF4
FFE3539FF4
FFF935FFF4
FFFC68FFF4
EFFF9DFFF3
8FFE1AFFC0
07DFFFD910
ENDCHAR
STARTCHAR uFFFFE
ENCODING 1048574
SWIDTH 578 0
DWIDTH 9 0
BBX 10 11 0 0
BITMAP
038ABB9500
5E99EB9B80
D89B65B4F2
FA7877F6F4
F99B67F6F4
F89A65B4F4
FEAAEBACF4
FFFFFFFFF4
EFFFFFFFF3
8FFFFFFFC0
07DFFFD910
ENDCHAR
STARTCHAR uFFFFF
ENCODING 1048575
SWIDTH 578 0
DWIDTH 9 0
BBX 10 11 0 0
BITMAP
0355555400
4302760150
502FFF9032
507FFFE014
4074C59004
401CAC6004
4006CB0004
4003970004
5000620023
5101E50060
0555555510
ENDCHAR
STARTCHAR .notdef
ENCODING -1
SWIDTH 1000 0
DWIDTH 16 0
BBX 1 1 0 0
BITMAP
00
ENDCHAR
STARTCHAR glyph1
ENCODING -1
SWIDTH 0 0
DWIDTH 0 0
BBX 1 1 0 0
BITMAP
00
ENDCHAR
ENDFONT
